<?xml version="1.0" encoding="utf-8"?>
<!-- Generator: Adobe Illustrator 17.0.0, SVG Export Plug-In . SVG Version: 6.00 Build 0)  -->
<!DOCTYPE svg PUBLIC "-//W3C//DTD SVG 1.1//EN" "http://www.w3.org/Graphics/SVG/1.1/DTD/svg11.dtd">
<svg version="1.1" xmlns="http://www.w3.org/2000/svg" xmlns:xlink="http://www.w3.org/1999/xlink" x="0px" y="0px" width="792px"
	 height="612px" viewBox="0 0 792 612" enable-background="new 0 0 792 612" xml:space="preserve">
<g id="CABAL_Orange" display="none">
	
		<text transform="matrix(0.8881 0 0 1 215.7328 326.0379)" display="inline" fill="#F89E1E" font-family="'DeathStar'" font-size="126.3709">cabal</text>
	<g display="inline">
		<path fill="#F99E1C" d="M304.029,405.875c0,0-1.006,0.013-2.954,0.039c-0.487,0.006-1.033,0.014-1.637,0.022
			c-0.606,0.008-1.48-0.05-2.312-0.08c-1.698-0.089-3.769-0.129-5.815-0.409c-1.052-0.12-2.164-0.246-3.338-0.38
			c-1.163-0.179-2.377-0.403-3.653-0.622c-0.637-0.112-1.289-0.227-1.955-0.344c-0.656-0.152-1.327-0.307-2.011-0.466
			c-1.362-0.338-2.806-0.614-4.254-1.049c-5.859-1.557-12.366-3.98-19.256-7.366c-6.884-3.395-14.129-7.817-21.31-13.476
			c-1.786-1.425-3.621-2.863-5.38-4.455c-0.887-0.787-1.806-1.556-2.689-2.38c-0.873-0.833-1.755-1.674-2.645-2.522
			c-0.901-0.837-1.772-1.718-2.63-2.628c-0.866-0.901-1.739-1.811-2.619-2.728c-0.842-0.952-1.691-1.912-2.547-2.88
			c-0.862-0.963-1.715-1.947-2.526-2.98c-0.824-1.021-1.655-2.051-2.493-3.088c-0.795-1.071-1.596-2.15-2.403-3.237
			c-0.402-0.545-0.805-1.091-1.21-1.64c-0.382-0.565-0.765-1.133-1.15-1.702c-0.764-1.142-1.534-2.292-2.31-3.451
			c-2.972-4.722-5.791-9.73-8.317-15.061c-2.47-5.357-4.712-10.994-6.541-16.93c-1.777-5.952-3.183-12.172-4.101-18.615
			c-0.186-1.617-0.372-3.242-0.56-4.876c-0.173-1.635-0.225-3.292-0.339-4.949l-0.074-1.245l-0.037-0.624l-0.009-0.565l0-0.29
			c0-0.774,0-1.549,0-2.326s0-1.557,0-2.338c-0.01-0.369,0.016-0.818,0.045-1.27l0.079-1.342c0.056-0.895,0.112-1.792,0.168-2.691
			c0.055-0.902,0.111-1.807,0.239-2.648c0.225-1.716,0.451-3.439,0.678-5.171c0.33-1.711,0.661-3.43,0.994-5.156
			c0.361-1.718,0.848-3.412,1.275-5.128c3.751-13.64,10.437-26.752,19.364-38.459c8.946-11.704,20.096-22.062,32.912-30.496
			c6.413-4.21,13.256-7.931,20.487-11.013c7.228-3.08,14.854-5.531,22.815-7.024c2.002-0.325,3.981-0.756,6.021-0.946l3.045-0.354
			c1.017-0.111,2.051-0.137,3.076-0.207c1.029-0.048,2.053-0.144,3.089-0.149l3.112,0.009l1.557,0.008l1.645,0.101l2.864,0.191
			c1.911,0.128,3.826,0.256,5.743,0.384c2.036,0.263,4.076,0.526,6.118,0.79c4.131,0.423,8.056,1.397,12.069,2.177
			c1.004,0.173,1.987,0.493,2.978,0.76l2.97,0.833l2.972,0.838c0.992,0.275,1.953,0.685,2.931,1.023
			c1.944,0.723,3.907,1.395,5.837,2.17c1.898,0.869,3.798,1.738,5.701,2.609c7.5,3.732,14.625,8.435,20.931,14.136
			c6.315,5.687,11.776,12.342,16.201,19.58c4.436,7.239,7.855,15.035,10.39,23.049c2.522,8.021,4.244,16.257,5.13,24.561
			c0.484,4.149,0.734,8.319,0.826,12.498c0.054,2.089,0.038,4.183-0.02,6.287c-0.023,1.051-0.079,2.107-0.138,3.171l-0.113,1.618
			l-0.13,1.498c-0.266,3.684-0.313,7.646-0.19,11.5c0.134,3.878,0.397,7.76,0.853,11.616c0.888,7.714,2.475,15.328,4.769,22.673
			c2.304,7.339,5.371,14.401,9.308,20.893c3.929,6.492,8.74,12.394,14.328,17.41c5.581,5.027,11.923,9.146,18.687,12.378
			c6.733,3.334,14.033,5.392,21.354,6.997c1.85,0.341,3.698,0.681,5.543,1.021c0.917,0.202,1.86,0.26,2.792,0.373l2.801,0.308
			l2.798,0.309l1.398,0.155l1.407,0.063c1.877,0.078,3.751,0.157,5.621,0.235l2.726,0.116l2.865-0.04l2.854-0.046l2.728-0.172
			l2.727-0.177l2.746-0.304c0.914-0.108,1.831-0.186,2.74-0.318l2.717-0.435c14.474-2.353,28.211-7.652,40.108-15.312
			c11.925-7.635,21.938-17.628,29.598-28.779c7.694-11.155,12.95-23.495,16.084-35.894c1.555-6.206,2.668-12.431,3.193-18.604
			c0.199-1.537,0.223-3.081,0.336-4.611c0.046-0.766,0.093-1.53,0.139-2.293c0.028-0.674,0.021-1.518,0.032-2.265
			c-0.004-1.531,0.072-3.091,0.001-4.577c-0.07-1.487-0.139-2.967-0.209-4.439c-0.455-5.917-1.398-11.68-2.784-17.2
			c-1.42-5.515-3.358-10.749-5.588-15.698c-4.524-9.884-10.526-18.437-17.047-25.635c-6.567-7.175-13.594-13.084-20.582-17.816
			c-6.973-4.763-13.835-8.46-20.227-11.352c-12.816-5.773-23.634-8.433-31.005-9.916c-3.702-0.7-6.557-1.17-8.491-1.397
			c-1.932-0.256-2.929-0.388-2.929-0.388s1,0.113,2.936,0.331c1.94,0.189,4.804,0.604,8.526,1.233
			c7.41,1.343,18.305,3.794,31.311,9.351c6.487,2.785,13.473,6.374,20.611,11.049c7.153,4.644,14.386,10.485,21.206,17.651
			c6.773,7.191,13.075,15.798,17.913,25.846c2.386,5.03,4.483,10.372,6.055,16.021c1.538,5.656,2.625,11.568,3.213,17.677
			c0.102,1.54,0.204,3.089,0.306,4.645c0.101,1.558,0.054,3.065,0.089,4.612c0.002,0.792,0.027,1.492,0.011,2.365
			c-0.032,0.783-0.064,1.568-0.096,2.354c-0.084,1.572-0.081,3.158-0.253,4.741c-0.417,6.351-1.436,12.784-2.917,19.223
			c-2.987,12.864-8.182,25.78-15.982,37.573c-7.764,11.787-18.049,22.475-30.444,30.757c-12.363,8.307-26.766,14.195-42.026,16.98
			l-2.866,0.515c-0.958,0.159-1.925,0.261-2.89,0.394l-2.899,0.377c-0.977,0.1-1.969,0.167-2.954,0.251l-2.966,0.238l-2.863,0.102
			l-2.864,0.096l-3.012-0.059c-1.958-0.044-3.92-0.089-5.885-0.133l-1.475-0.04l-1.475-0.133l-2.954-0.267l-2.96-0.269
			c-0.987-0.1-1.979-0.146-2.96-0.338c-1.968-0.323-3.939-0.646-5.913-0.97c-7.841-1.555-15.744-3.624-23.183-7.114
			c-7.458-3.383-14.563-7.796-20.862-13.255c-6.308-5.445-11.777-11.902-16.243-18.969c-4.476-7.068-7.971-14.722-10.62-22.619
			c-2.639-7.905-4.496-16.051-5.607-24.285c-0.567-4.118-0.93-8.26-1.154-12.417c-0.208-4.182-0.254-8.277-0.026-12.625l0.101-1.51
			l0.07-1.394c0.033-0.944,0.066-1.899,0.068-2.859c0.016-1.918-0.006-3.849-0.095-5.779c-0.16-3.859-0.466-7.722-0.989-11.548
			c-0.966-7.665-2.707-15.195-5.132-22.415c-2.438-7.216-5.637-14.111-9.662-20.4c-4.018-6.291-8.869-11.956-14.42-16.761
			c-5.545-4.815-11.774-8.756-18.381-11.892c-1.68-0.731-3.359-1.461-5.035-2.189c-1.714-0.647-3.468-1.201-5.193-1.81
			c-0.872-0.282-1.715-0.634-2.608-0.859l-2.669-0.69l-2.662-0.693c-0.889-0.222-1.761-0.496-2.677-0.63
			c-3.621-0.618-7.241-1.456-10.804-1.733c-1.786-0.204-3.568-0.407-5.348-0.61c-1.92-0.091-3.837-0.182-5.75-0.272l-2.867-0.136
			l-1.217-0.055l-1.306,0.024l-2.608,0.041c-0.868,0.018-1.741,0.125-2.609,0.181c-0.869,0.079-1.737,0.109-2.604,0.223
			l-2.596,0.357c-1.732,0.185-3.444,0.607-5.16,0.913c-6.848,1.418-13.511,3.696-19.856,6.549
			c-6.348,2.853-12.386,6.288-18.035,10.156c-11.294,7.748-21.062,17.204-28.708,27.632c-7.638,10.436-13.12,21.852-16.049,33.372
			c-0.323,1.449-0.715,2.878-0.987,4.321c-0.25,1.446-0.499,2.885-0.747,4.319c-0.159,1.442-0.318,2.878-0.476,4.307
			c-0.101,0.728-0.121,1.402-0.146,2.075l-0.094,2.021l-0.052,1.006c-0.02,0.329-0.04,0.661-0.023,1.074
			c0.015,0.781,0.03,1.56,0.045,2.337c0.015,0.777,0.03,1.553,0.045,2.326l0.006,0.29c0-0.026,0.009,0.469,0,0.014l0.044,0.532
			l0.087,1.061c0.13,1.412,0.191,2.821,0.369,4.214c0.187,1.392,0.374,2.776,0.559,4.154c0.897,5.491,2.205,10.798,3.827,15.885
			c1.675,5.075,3.708,9.901,5.928,14.493c2.278,4.569,4.809,8.863,7.462,12.911c0.694,0.992,1.383,1.977,2.066,2.955
			c0.343,0.488,0.684,0.975,1.024,1.459c0.362,0.469,0.722,0.936,1.081,1.402c0.718,0.93,1.43,1.854,2.137,2.77
			c0.745,0.886,1.484,1.764,2.218,2.636c0.718,0.885,1.475,1.723,2.241,2.541c0.757,0.825,1.508,1.643,2.253,2.454
			c0.778,0.778,1.55,1.55,2.315,2.314c0.755,0.774,1.522,1.523,2.317,2.227c0.782,0.718,1.556,1.429,2.324,2.134
			c0.774,0.696,1.581,1.339,2.357,2.002c1.539,1.346,3.142,2.541,4.694,3.736c6.246,4.732,12.46,8.346,18.254,11.063
			c5.801,2.707,11.173,4.59,15.911,5.742c1.176,0.335,2.331,0.516,3.426,0.771c0.549,0.118,1.086,0.234,1.613,0.347
			c0.529,0.08,1.047,0.159,1.553,0.235c1.011,0.154,1.976,0.301,2.894,0.44c0.919,0.084,1.792,0.164,2.616,0.239
			c1.698,0.206,2.966,0.163,4.139,0.224c0.289,0.011,0.567,0.022,0.833,0.033c0.274,0.008,0.492,0.033,0.822,0.013
			c0.604-0.02,1.15-0.038,1.637-0.053c1.948-0.064,2.953-0.096,2.953-0.096L304.029,405.875z"/>
	</g>
</g>
<g id="Camada_2" display="none">
	<g display="inline">
		<path fill="#855AA5" d="M284.029,425.875c0,0-1.006,0.013-2.954,0.039c-0.487,0.006-1.033,0.014-1.637,0.022
			c-0.606,0.008-1.48-0.05-2.312-0.08c-1.698-0.089-3.769-0.129-5.815-0.409c-1.052-0.12-2.164-0.246-3.338-0.38
			c-1.163-0.179-2.377-0.403-3.653-0.622c-0.637-0.112-1.289-0.227-1.955-0.344c-0.656-0.152-1.327-0.307-2.011-0.466
			c-1.362-0.338-2.806-0.614-4.254-1.049c-5.859-1.557-12.366-3.98-19.256-7.366c-6.884-3.395-14.129-7.817-21.31-13.476
			c-1.786-1.425-3.621-2.863-5.38-4.455c-0.887-0.787-1.806-1.556-2.689-2.38c-0.873-0.833-1.755-1.674-2.645-2.522
			c-0.901-0.837-1.772-1.718-2.63-2.628c-0.866-0.901-1.739-1.811-2.619-2.728c-0.842-0.952-1.691-1.912-2.547-2.88
			c-0.862-0.963-1.715-1.947-2.526-2.98c-0.824-1.021-1.655-2.051-2.493-3.088c-0.795-1.071-1.596-2.15-2.403-3.237
			c-0.402-0.545-0.805-1.091-1.21-1.64c-0.382-0.565-0.765-1.133-1.15-1.702c-0.764-1.142-1.534-2.292-2.31-3.451
			c-2.972-4.722-5.791-9.73-8.317-15.061c-2.47-5.357-4.712-10.994-6.541-16.93c-1.777-5.952-3.183-12.172-4.101-18.615
			c-0.186-1.617-0.372-3.242-0.56-4.876c-0.173-1.635-0.225-3.292-0.339-4.949l-0.074-1.245l-0.037-0.624l-0.009-0.565l0-0.29
			c0-0.774,0-1.549,0-2.326s0-1.557,0-2.338c-0.01-0.369,0.016-0.818,0.045-1.27l0.079-1.342c0.056-0.895,0.112-1.792,0.168-2.691
			c0.055-0.902,0.111-1.807,0.239-2.648c0.225-1.716,0.451-3.439,0.678-5.171c0.33-1.711,0.661-3.43,0.994-5.156
			c0.361-1.718,0.848-3.412,1.275-5.128c3.751-13.64,10.437-26.752,19.364-38.459c8.946-11.704,20.096-22.062,32.912-30.496
			c6.413-4.21,13.256-7.931,20.487-11.013c7.228-3.08,14.854-5.531,22.815-7.024c2.002-0.325,3.981-0.756,6.021-0.946l3.045-0.354
			c1.017-0.111,2.051-0.137,3.076-0.207c1.029-0.048,2.053-0.144,3.089-0.149l3.112,0.009l1.557,0.008l1.645,0.101l2.864,0.191
			c1.911,0.128,3.826,0.256,5.743,0.384c2.036,0.263,4.076,0.526,6.118,0.79c4.131,0.423,8.056,1.397,12.069,2.177
			c1.004,0.173,1.987,0.493,2.978,0.76l2.97,0.833l2.972,0.838c0.992,0.275,1.953,0.685,2.931,1.023
			c1.944,0.723,3.907,1.395,5.837,2.17c1.898,0.869,3.798,1.738,5.701,2.609c7.5,3.732,14.625,8.435,20.931,14.136
			c6.315,5.687,11.776,12.342,16.201,19.58c4.436,7.239,7.855,15.035,10.39,23.049c2.522,8.021,4.244,16.257,5.13,24.561
			c0.484,4.149,0.734,8.319,0.826,12.498c0.054,2.089,0.038,4.183-0.02,6.287c-0.023,1.051-0.079,2.107-0.138,3.171l-0.113,1.618
			l-0.13,1.498c-0.266,3.684-0.313,7.646-0.19,11.5c0.134,3.878,0.397,7.76,0.853,11.616c0.888,7.714,2.475,15.328,4.769,22.673
			c2.304,7.339,5.371,14.401,9.308,20.893c3.929,6.492,8.74,12.394,14.328,17.41c5.581,5.027,11.923,9.146,18.687,12.378
			c6.733,3.334,14.033,5.392,21.354,6.997c1.85,0.341,3.698,0.681,5.543,1.021c0.917,0.202,1.86,0.26,2.792,0.373l2.801,0.308
			l2.798,0.309l1.398,0.155l1.407,0.063c1.877,0.078,3.751,0.157,5.621,0.235l2.726,0.116l2.865-0.04l2.854-0.046l2.728-0.172
			l2.727-0.177l2.746-0.304c0.914-0.108,1.831-0.186,2.74-0.318l2.717-0.435c14.474-2.353,28.211-7.652,40.108-15.312
			c11.925-7.635,21.938-17.628,29.598-28.779c7.694-11.155,12.95-23.495,16.084-35.894c1.555-6.206,2.668-12.431,3.193-18.604
			c0.199-1.537,0.223-3.081,0.336-4.611c0.046-0.766,0.093-1.53,0.139-2.293c0.028-0.674,0.021-1.518,0.032-2.265
			c-0.004-1.531,0.072-3.091,0.001-4.577c-0.07-1.487-0.139-2.967-0.209-4.439c-0.455-5.917-1.398-11.68-2.784-17.2
			c-1.42-5.515-3.358-10.749-5.588-15.698c-4.524-9.884-10.526-18.437-17.047-25.635c-6.567-7.175-13.594-13.084-20.582-17.816
			c-6.973-4.763-13.835-8.46-20.227-11.352c-12.816-5.773-23.634-8.433-31.005-9.916c-3.702-0.7-6.557-1.17-8.491-1.397
			c-1.932-0.256-2.929-0.388-2.929-0.388s1,0.113,2.936,0.331c1.94,0.189,4.804,0.604,8.526,1.233
			c7.41,1.343,18.305,3.794,31.311,9.351c6.487,2.785,13.473,6.374,20.611,11.049c7.153,4.644,14.386,10.485,21.206,17.651
			c6.773,7.191,13.075,15.798,17.913,25.846c2.386,5.03,4.483,10.372,6.055,16.021c1.538,5.656,2.625,11.568,3.213,17.677
			c0.102,1.54,0.204,3.089,0.306,4.645c0.101,1.558,0.054,3.065,0.089,4.612c0.002,0.792,0.027,1.492,0.011,2.365
			c-0.032,0.783-0.064,1.568-0.096,2.354c-0.084,1.572-0.081,3.158-0.253,4.741c-0.417,6.351-1.436,12.784-2.917,19.223
			c-2.987,12.864-8.182,25.78-15.982,37.573c-7.764,11.787-18.049,22.475-30.444,30.757c-12.363,8.307-26.766,14.195-42.026,16.98
			l-2.866,0.515c-0.958,0.159-1.925,0.261-2.89,0.394l-2.899,0.377c-0.977,0.1-1.969,0.167-2.954,0.251l-2.966,0.238l-2.863,0.102
			l-2.864,0.096l-3.012-0.059c-1.958-0.044-3.92-0.089-5.885-0.133l-1.475-0.04l-1.475-0.133l-2.954-0.267l-2.96-0.269
			c-0.987-0.1-1.979-0.146-2.96-0.338c-1.968-0.323-3.939-0.646-5.913-0.97c-7.841-1.555-15.744-3.624-23.183-7.114
			c-7.458-3.383-14.563-7.796-20.862-13.255c-6.308-5.445-11.777-11.902-16.243-18.969c-4.476-7.068-7.971-14.722-10.62-22.619
			c-2.639-7.905-4.496-16.051-5.607-24.285c-0.567-4.118-0.93-8.26-1.154-12.417c-0.208-4.182-0.254-8.277-0.026-12.625l0.101-1.51
			l0.07-1.394c0.033-0.944,0.066-1.899,0.068-2.859c0.016-1.918-0.006-3.849-0.095-5.779c-0.16-3.859-0.466-7.722-0.989-11.548
			c-0.966-7.665-2.707-15.195-5.132-22.415c-2.438-7.216-5.637-14.111-9.662-20.4c-4.018-6.291-8.869-11.956-14.42-16.761
			c-5.545-4.815-11.774-8.756-18.381-11.892c-1.68-0.731-3.359-1.461-5.035-2.189c-1.714-0.647-3.468-1.201-5.193-1.81
			c-0.872-0.282-1.715-0.634-2.608-0.859l-2.669-0.69l-2.662-0.693c-0.889-0.222-1.761-0.496-2.677-0.63
			c-3.621-0.618-7.241-1.456-10.804-1.733c-1.786-0.204-3.568-0.407-5.348-0.61c-1.92-0.091-3.837-0.182-5.75-0.272l-2.867-0.136
			l-1.217-0.055l-1.306,0.024l-2.608,0.041c-0.868,0.018-1.741,0.125-2.609,0.181c-0.869,0.079-1.737,0.109-2.604,0.223
			l-2.596,0.357c-1.732,0.185-3.444,0.607-5.16,0.913c-6.848,1.418-13.511,3.696-19.856,6.549
			c-6.348,2.853-12.386,6.288-18.035,10.156c-11.294,7.748-21.062,17.204-28.708,27.632c-7.638,10.436-13.12,21.852-16.049,33.372
			c-0.323,1.449-0.715,2.878-0.987,4.321c-0.25,1.446-0.499,2.885-0.747,4.319c-0.159,1.442-0.318,2.878-0.476,4.307
			c-0.101,0.728-0.121,1.402-0.146,2.075l-0.094,2.021l-0.052,1.006c-0.02,0.329-0.04,0.661-0.023,1.074
			c0.015,0.781,0.03,1.56,0.045,2.337c0.015,0.777,0.03,1.553,0.045,2.326l0.006,0.29c0-0.026,0.009,0.469,0,0.014l0.044,0.532
			l0.087,1.061c0.13,1.412,0.191,2.821,0.369,4.214c0.187,1.392,0.374,2.776,0.559,4.154c0.897,5.491,2.205,10.798,3.827,15.885
			c1.675,5.075,3.708,9.901,5.928,14.493c2.278,4.569,4.809,8.863,7.462,12.911c0.694,0.992,1.383,1.977,2.066,2.955
			c0.343,0.488,0.684,0.975,1.024,1.459c0.362,0.469,0.722,0.936,1.081,1.402c0.718,0.93,1.43,1.854,2.137,2.77
			c0.745,0.886,1.484,1.764,2.218,2.636c0.718,0.885,1.475,1.723,2.241,2.541c0.757,0.825,1.508,1.643,2.253,2.454
			c0.778,0.778,1.55,1.55,2.315,2.314c0.755,0.774,1.522,1.523,2.317,2.227c0.782,0.718,1.556,1.429,2.324,2.134
			c0.774,0.696,1.581,1.339,2.357,2.002c1.539,1.346,3.142,2.541,4.694,3.736c6.246,4.732,12.46,8.346,18.254,11.063
			c5.801,2.707,11.173,4.59,15.911,5.742c1.176,0.335,2.331,0.516,3.426,0.771c0.549,0.118,1.086,0.234,1.613,0.347
			c0.529,0.08,1.047,0.159,1.553,0.235c1.011,0.154,1.976,0.301,2.894,0.44c0.919,0.084,1.792,0.164,2.616,0.239
			c1.698,0.206,2.966,0.163,4.139,0.224c0.289,0.011,0.567,0.022,0.833,0.033c0.274,0.008,0.492,0.033,0.822,0.013
			c0.604-0.02,1.15-0.038,1.637-0.053c1.948-0.064,2.953-0.096,2.953-0.096L284.029,425.875z"/>
	</g>
	
		<text transform="matrix(0.8881 0 0 1 195.7328 346.0379)" display="inline" fill="#855AA5" font-family="'DeathStar'" font-size="126.3709">cabal</text>
</g>
<g id="Camada_3" display="none">
	<g display="inline">
		<path fill="#231146" d="M283.821,416.878c0,0-1.005,0.041-2.952,0.119c-0.487,0.02-1.033,0.042-1.636,0.066
			c-0.604,0.024-1.288-0.019-2.02-0.028c-1.465-0.05-3.183-0.023-5.08-0.235c-0.954-0.083-1.964-0.171-3.028-0.263
			c-1.057-0.153-2.168-0.313-3.333-0.482c-0.583-0.086-1.178-0.174-1.788-0.264c-0.602-0.124-1.218-0.251-1.846-0.381
			c-1.252-0.279-2.578-0.49-3.917-0.858c-5.408-1.285-11.48-3.368-17.985-6.356c-12.994-5.945-27.654-16.036-40.758-31.197
			c-0.809-0.954-1.624-1.916-2.446-2.886c-0.781-1.003-1.569-2.013-2.362-3.032c-0.396-0.51-0.793-1.023-1.192-1.537
			c-0.377-0.531-0.755-1.063-1.134-1.598c-0.756-1.072-1.517-2.153-2.283-3.241c-2.941-4.44-5.748-9.16-8.284-14.199
			c-2.479-5.064-4.751-10.403-6.635-16.041c-1.832-5.653-3.318-11.574-4.343-17.725c-0.214-1.545-0.429-3.098-0.646-4.658
			c-0.204-1.563-0.287-3.148-0.436-4.735l-0.1-1.193l-0.05-0.598l-0.019-0.703c-0.019-0.773-0.038-1.549-0.057-2.326
			s-0.038-1.556-0.057-2.337c-0.031-0.769,0.045-1.647,0.065-2.469c0.034-0.836,0.068-1.674,0.103-2.515
			c0.031-0.842,0.063-1.688,0.168-2.501c0.177-1.645,0.355-3.298,0.533-4.958c0.278-1.646,0.557-3.3,0.838-4.961
			c0.307-1.656,0.74-3.291,1.11-4.95c3.3-13.187,9.464-26.059,17.912-37.694c8.457-11.64,19.184-22.065,31.636-30.641
			c6.23-4.284,12.902-8.101,19.981-11.299c7.076-3.196,14.566-5.782,22.417-7.426c1.974-0.363,3.929-0.832,5.945-1.062l3.012-0.415
			c1.006-0.132,2.029-0.178,3.045-0.269c1.02-0.069,2.035-0.186,3.062-0.212l3.088-0.055l1.547-0.025l1.629,0.068l2.868,0.127
			c1.914,0.085,3.831,0.169,5.751,0.254c2.035,0.219,4.073,0.439,6.115,0.659c4.133,0.335,8.073,1.224,12.107,1.919
			c1.009,0.152,1.998,0.451,2.996,0.697l2.991,0.771l2.996,0.777c1.001,0.255,1.971,0.645,2.96,0.963
			c1.965,0.682,3.949,1.318,5.902,2.061c1.924,0.837,3.851,1.675,5.779,2.514c7.613,3.611,14.893,8.218,21.383,13.868
			c6.498,5.635,12.169,12.285,16.804,19.555c4.646,7.271,8.275,15.135,11.009,23.237c2.722,8.111,4.633,16.456,5.699,24.89
			c0.573,4.215,0.911,8.455,1.086,12.717c0.096,2.131,0.121,4.269,0.102,6.426c-0.003,1.077-0.04,2.163-0.08,3.264l-0.087,1.686
			l-0.069,0.95l-0.03,0.547c-0.085,1.681-0.116,3.633-0.102,5.487c0.017,1.881,0.078,3.771,0.178,5.662
			c0.217,3.781,0.559,7.562,1.087,11.307c1.025,7.494,2.751,14.844,5.156,21.85c2.406,7.004,5.518,13.663,9.407,19.688
			c3.884,6.026,8.541,11.402,13.863,15.909c5.317,4.517,11.291,8.153,17.653,10.976c6.327,2.908,13.203,4.673,20.116,6.028
			c1.751,0.282,3.499,0.563,5.244,0.843c0.863,0.173,1.765,0.205,2.651,0.291l2.663,0.23l2.657,0.234l1.325,0.126l1.343,0.037
			c1.791,0.046,3.579,0.091,5.364,0.137l2.432,0.072l2.864-0.085l2.843-0.09l2.467-0.204l2.47-0.201l2.565-0.328
			c0.853-0.115,1.71-0.199,2.557-0.337l2.532-0.444c6.746-1.158,13.301-2.984,19.537-5.428c6.227-2.463,12.164-5.472,17.693-9.006
			c5.527-3.538,10.628-7.617,15.225-12.114c4.609-4.484,8.76-9.349,12.363-14.521c7.215-10.343,12.308-21.793,15.378-33.429
			c1.552-5.815,2.701-11.671,3.286-17.508c0.214-1.451,0.255-2.916,0.385-4.365c0.056-0.726,0.111-1.45,0.167-2.173
			c0.004,0.012,0.021-0.409,0.014-0.042l0.007-0.29l0.015-0.579l0.032-1.156c0.021-0.77,0.042-1.538,0.064-2.304
			c0.016-0.756,0.061-1.571,0.021-2.2c-0.036-1.343-0.072-2.68-0.108-4.01c-0.305-5.51-1.105-10.926-2.255-16.116
			c-1.191-5.191-2.878-10.141-4.85-14.849c-3.988-9.418-9.515-17.617-15.479-24.726c-6.04-7.062-12.613-12.989-19.229-17.792
			c-6.575-4.868-13.104-8.76-19.241-11.834c-6.146-3.062-11.855-5.415-16.922-7.217c-1.274-0.436-2.5-0.855-3.677-1.258
			c-1.192-0.36-2.336-0.706-3.429-1.036c-2.182-0.697-4.206-1.17-6.007-1.672c-3.622-0.895-6.43-1.504-8.334-1.849
			c-1.904-0.37-2.886-0.562-2.886-0.562l0.205-1.989c0,0,1.014,0.053,2.979,0.157c1.972,0.072,4.881,0.347,8.683,0.781
			c3.791,0.491,8.478,1.181,13.902,2.474c5.423,1.275,11.637,2.992,18.379,5.61c6.742,2.602,14.061,5.997,21.596,10.567
			c7.526,4.573,15.212,10.397,22.559,17.675c7.33,7.281,14.107,16.242,19.482,26.755c2.644,5.27,4.992,10.898,6.793,16.869
			c1.775,5.985,3.003,12.245,3.742,18.76c0.135,1.683,0.271,3.374,0.407,5.075c0.084,0.892,0.081,1.606,0.107,2.382
			c0.021,0.766,0.043,1.534,0.064,2.304l0.032,1.156l0.015,0.579l0.007,0.29l-0.008,0.538c-0.023,0.823-0.045,1.648-0.068,2.474
			c-0.066,1.653-0.046,3.319-0.203,4.988c-0.357,6.687-1.34,13.489-2.824,20.319c-3.05,13.627-8.408,27.433-16.687,40.038
			c-4.118,6.302-8.884,12.337-14.32,17.879c-5.44,5.535-11.516,10.597-18.133,15.022c-13.196,8.926-28.685,15.002-44.904,17.858
			l-3.051,0.507c-1.02,0.153-2.047,0.249-3.072,0.375l-3.08,0.353c-1.053,0.093-2.141,0.153-3.211,0.228l-3.227,0.205l-2.874,0.058
			l-2.865,0.052c-0.61,0.01-0.389-0.005-0.624-0.006l-0.383-0.014l-0.766-0.027l-1.533-0.055c-2.044-0.077-4.091-0.154-6.142-0.231
			l-1.539-0.066l-1.547-0.162l-3.095-0.342l-3.099-0.347c-1.033-0.127-2.067-0.199-3.102-0.42c-2.067-0.382-4.138-0.764-6.211-1.148
			c-8.248-1.804-16.576-4.166-24.421-8.083c-7.86-3.792-15.334-8.687-21.896-14.656c-6.574-5.954-12.198-12.937-16.708-20.471
			c-4.524-7.535-7.974-15.591-10.521-23.824l-0.933-3.094c-0.311-1.031-0.543-2.078-0.817-3.117
			c-0.259-1.041-0.538-2.079-0.777-3.123l-0.661-3.141c-0.889-4.186-1.531-8.405-2.033-12.632c-0.494-4.229-0.778-8.472-0.92-12.726
			c-0.062-2.128-0.08-4.26-0.048-6.402c0.04-2.169,0.112-4.239,0.288-6.573l0.132-1.511l0.096-1.326
			c0.051-0.908,0.104-1.832,0.126-2.766c0.055-1.865,0.075-3.751,0.028-5.639c-0.076-3.776-0.295-7.569-0.729-11.329
			c-0.787-7.535-2.337-14.955-4.563-22.086c-2.238-7.127-5.229-13.955-9.043-20.211c-3.808-6.259-8.45-11.93-13.817-16.786
			c-5.361-4.866-11.436-8.901-17.929-12.159c-1.654-0.763-3.306-1.524-4.956-2.285c-1.691-0.679-3.424-1.269-5.128-1.919
			c-0.862-0.301-1.695-0.674-2.579-0.919l-2.644-0.752l-2.641-0.755c-0.883-0.243-1.749-0.538-2.659-0.694
			c-3.6-0.703-7.205-1.627-10.766-1.992c-1.787-0.247-3.571-0.494-5.352-0.741c-1.917-0.134-3.832-0.268-5.742-0.402l-2.864-0.2
			l-1.233-0.088l-1.316-0.008l-2.631-0.023c-0.877-0.004-1.758,0.083-2.636,0.118c-0.878,0.058-1.757,0.067-2.635,0.161l-2.63,0.296
			c-1.757,0.145-3.493,0.528-5.236,0.796c-6.957,1.266-13.757,3.41-20.253,6.147c-6.501,2.738-12.709,6.076-18.541,9.87
			c-11.657,7.606-21.849,16.994-29.984,27.487c-8.116,10.507-14.12,22.164-17.5,34.137c-0.379,1.506-0.827,2.993-1.152,4.498
			c-0.302,1.511-0.603,3.016-0.903,4.514c-0.208,1.513-0.415,3.02-0.621,4.519c-0.123,0.756-0.169,1.49-0.217,2.223
			c-0.053,0.734-0.106,1.467-0.159,2.198c-0.04,0.746-0.141,1.429-0.133,2.223c-0.004,0.781-0.008,1.56-0.012,2.338
			c-0.004,0.777-0.008,1.553-0.012,2.327l-0.002,0.29c-0.001,0.042,0,0.316-0.003,0.167l0.031,0.558l0.061,1.114
			c0.096,1.482,0.125,2.963,0.273,4.428c0.159,1.465,0.316,2.922,0.473,4.371c0.789,5.783,2.017,11.389,3.585,16.775
			c1.62,5.373,3.622,10.496,5.833,15.381c2.269,4.861,4.811,9.443,7.496,13.773c0.703,1.062,1.4,2.117,2.093,3.165
			c0.348,0.523,0.694,1.044,1.04,1.563c0.368,0.504,0.734,1.005,1.099,1.505c0.732,0.999,1.457,1.991,2.178,2.975
			c0.761,0.954,1.516,1.9,2.265,2.838c0.734,0.952,1.51,1.856,2.294,2.741c0.778,0.891,1.549,1.775,2.313,2.651
			c0.801,0.843,1.595,1.68,2.382,2.509c0.779,0.839,1.57,1.651,2.39,2.419c0.808,0.781,1.609,1.555,2.403,2.322
			c0.802,0.758,1.638,1.463,2.444,2.188c1.597,1.467,3.265,2.784,4.885,4.096c6.507,5.214,13.049,9.284,19.23,12.398
			c6.186,3.105,11.993,5.328,17.183,6.752c1.286,0.403,2.559,0.648,3.763,0.962c0.605,0.147,1.197,0.291,1.777,0.432
			c0.586,0.107,1.16,0.212,1.721,0.315c1.123,0.203,2.195,0.396,3.215,0.58c1.028,0.125,2.004,0.244,2.926,0.356
			c1.848,0.273,3.468,0.298,4.875,0.398c0.705,0.034,1.343,0.1,1.947,0.098c0.604-0.003,1.15-0.006,1.638-0.009
			c1.949-0.011,2.955-0.016,2.955-0.016L283.821,416.878z"/>
	</g>
	
		<text transform="matrix(0.8881 0 0 1 195.7328 346.0379)" display="inline" fill="#231146" font-family="'DeathStar'" font-size="126.3709">cabal</text>
</g>
<g id="Camada_4" display="none">
	<g display="inline">
		<path fill="#F26D23" d="M283.821,416.878c0,0-1.005,0.041-2.952,0.119c-0.487,0.02-1.033,0.042-1.636,0.066
			c-0.604,0.024-1.288-0.019-2.02-0.028c-1.465-0.05-3.183-0.023-5.08-0.235c-0.954-0.083-1.964-0.171-3.028-0.263
			c-1.057-0.153-2.168-0.313-3.333-0.482c-0.583-0.086-1.178-0.174-1.788-0.264c-0.602-0.124-1.218-0.251-1.846-0.381
			c-1.252-0.279-2.578-0.49-3.917-0.858c-5.408-1.285-11.48-3.368-17.985-6.356c-12.994-5.945-27.654-16.036-40.758-31.197
			c-0.809-0.954-1.624-1.916-2.446-2.886c-0.781-1.003-1.569-2.013-2.362-3.032c-0.396-0.51-0.793-1.023-1.192-1.537
			c-0.377-0.531-0.755-1.063-1.134-1.598c-0.756-1.072-1.517-2.153-2.283-3.241c-2.941-4.44-5.748-9.16-8.284-14.199
			c-2.479-5.064-4.751-10.403-6.635-16.041c-1.832-5.653-3.318-11.574-4.343-17.725c-0.214-1.545-0.429-3.098-0.646-4.658
			c-0.204-1.563-0.287-3.148-0.436-4.735l-0.1-1.193l-0.05-0.598l-0.019-0.703c-0.019-0.773-0.038-1.549-0.057-2.326
			s-0.038-1.556-0.057-2.337c-0.031-0.769,0.045-1.647,0.065-2.469c0.034-0.836,0.068-1.674,0.103-2.515
			c0.031-0.842,0.063-1.688,0.168-2.501c0.177-1.645,0.355-3.298,0.533-4.958c0.278-1.646,0.557-3.3,0.838-4.961
			c0.307-1.656,0.74-3.291,1.11-4.95c3.3-13.187,9.464-26.059,17.912-37.694c8.457-11.64,19.184-22.065,31.636-30.641
			c6.23-4.284,12.902-8.101,19.981-11.299c7.076-3.196,14.566-5.782,22.417-7.426c1.974-0.363,3.929-0.832,5.945-1.062l3.012-0.415
			c1.006-0.132,2.029-0.178,3.045-0.269c1.02-0.069,2.035-0.186,3.062-0.212l3.088-0.055l1.547-0.025l1.629,0.068l2.868,0.127
			c1.914,0.085,3.831,0.169,5.751,0.254c2.035,0.219,4.073,0.439,6.115,0.659c4.133,0.335,8.073,1.224,12.107,1.919
			c1.009,0.152,1.998,0.451,2.996,0.697l2.991,0.771l2.996,0.777c1.001,0.255,1.971,0.645,2.96,0.963
			c1.965,0.682,3.949,1.318,5.902,2.061c1.924,0.837,3.851,1.675,5.779,2.514c7.613,3.611,14.893,8.218,21.383,13.868
			c6.498,5.635,12.169,12.285,16.804,19.555c4.646,7.271,8.275,15.135,11.009,23.237c2.722,8.111,4.633,16.456,5.699,24.89
			c0.573,4.215,0.911,8.455,1.086,12.717c0.096,2.131,0.121,4.269,0.102,6.426c-0.003,1.077-0.04,2.163-0.08,3.264l-0.087,1.686
			l-0.069,0.95l-0.03,0.547c-0.085,1.681-0.116,3.633-0.102,5.487c0.017,1.881,0.078,3.771,0.178,5.662
			c0.217,3.781,0.559,7.562,1.087,11.307c1.025,7.494,2.751,14.844,5.156,21.85c2.406,7.004,5.518,13.663,9.407,19.688
			c3.884,6.026,8.541,11.402,13.863,15.909c5.317,4.517,11.291,8.153,17.653,10.976c6.327,2.908,13.203,4.673,20.116,6.028
			c1.751,0.282,3.499,0.563,5.244,0.843c0.863,0.173,1.765,0.205,2.651,0.291l2.663,0.23l2.657,0.234l1.325,0.126l1.343,0.037
			c1.791,0.046,3.579,0.091,5.364,0.137l2.432,0.072l2.864-0.085l2.843-0.09l2.467-0.204l2.47-0.201l2.565-0.328
			c0.853-0.115,1.71-0.199,2.557-0.337l2.532-0.444c6.746-1.158,13.301-2.984,19.537-5.428c6.227-2.463,12.164-5.472,17.693-9.006
			c5.527-3.538,10.628-7.617,15.225-12.114c4.609-4.484,8.76-9.349,12.363-14.521c7.215-10.343,12.308-21.793,15.378-33.429
			c1.552-5.815,2.701-11.671,3.286-17.508c0.214-1.451,0.255-2.916,0.385-4.365c0.056-0.726,0.111-1.45,0.167-2.173
			c0.004,0.012,0.021-0.409,0.014-0.042l0.007-0.29l0.015-0.579l0.032-1.156c0.021-0.77,0.042-1.538,0.064-2.304
			c0.016-0.756,0.061-1.571,0.021-2.2c-0.036-1.343-0.072-2.68-0.108-4.01c-0.305-5.51-1.105-10.926-2.255-16.116
			c-1.191-5.191-2.878-10.141-4.85-14.849c-3.988-9.418-9.515-17.617-15.479-24.726c-6.04-7.062-12.613-12.989-19.229-17.792
			c-6.575-4.868-13.104-8.76-19.241-11.834c-6.146-3.062-11.855-5.415-16.922-7.217c-1.274-0.436-2.5-0.855-3.677-1.258
			c-1.192-0.36-2.336-0.706-3.429-1.036c-2.182-0.697-4.206-1.17-6.007-1.672c-3.622-0.895-6.43-1.504-8.334-1.849
			c-1.904-0.37-2.886-0.562-2.886-0.562l0.205-1.989c0,0,1.014,0.053,2.979,0.157c1.972,0.072,4.881,0.347,8.683,0.781
			c3.791,0.491,8.478,1.181,13.902,2.474c5.423,1.275,11.637,2.992,18.379,5.61c6.742,2.602,14.061,5.997,21.596,10.567
			c7.526,4.573,15.212,10.397,22.559,17.675c7.33,7.281,14.107,16.242,19.482,26.755c2.644,5.27,4.992,10.898,6.793,16.869
			c1.775,5.985,3.003,12.245,3.742,18.76c0.135,1.683,0.271,3.374,0.407,5.075c0.084,0.892,0.081,1.606,0.107,2.382
			c0.021,0.766,0.043,1.534,0.064,2.304l0.032,1.156l0.015,0.579l0.007,0.29l-0.008,0.538c-0.023,0.823-0.045,1.648-0.068,2.474
			c-0.066,1.653-0.046,3.319-0.203,4.988c-0.357,6.687-1.34,13.489-2.824,20.319c-3.05,13.627-8.408,27.433-16.687,40.038
			c-4.118,6.302-8.884,12.337-14.32,17.879c-5.44,5.535-11.516,10.597-18.133,15.022c-13.196,8.926-28.685,15.002-44.904,17.858
			l-3.051,0.507c-1.02,0.153-2.047,0.249-3.072,0.375l-3.08,0.353c-1.053,0.093-2.141,0.153-3.211,0.228l-3.227,0.205l-2.874,0.058
			l-2.865,0.052c-0.61,0.01-0.389-0.005-0.624-0.006l-0.383-0.014l-0.766-0.027l-1.533-0.055c-2.044-0.077-4.091-0.154-6.142-0.231
			l-1.539-0.066l-1.547-0.162l-3.095-0.342l-3.099-0.347c-1.033-0.127-2.067-0.199-3.102-0.42c-2.067-0.382-4.138-0.764-6.211-1.148
			c-8.248-1.804-16.576-4.166-24.421-8.083c-7.86-3.792-15.334-8.687-21.896-14.656c-6.574-5.954-12.198-12.937-16.708-20.471
			c-4.524-7.535-7.974-15.591-10.521-23.824l-0.933-3.094c-0.311-1.031-0.543-2.078-0.817-3.117
			c-0.259-1.041-0.538-2.079-0.777-3.123l-0.661-3.141c-0.889-4.186-1.531-8.405-2.033-12.632c-0.494-4.229-0.778-8.472-0.92-12.726
			c-0.062-2.128-0.08-4.26-0.048-6.402c0.04-2.169,0.112-4.239,0.288-6.573l0.132-1.511l0.096-1.326
			c0.051-0.908,0.104-1.832,0.126-2.766c0.055-1.865,0.075-3.751,0.028-5.639c-0.076-3.776-0.295-7.569-0.729-11.329
			c-0.787-7.535-2.337-14.955-4.563-22.086c-2.238-7.127-5.229-13.955-9.043-20.211c-3.808-6.259-8.45-11.93-13.817-16.786
			c-5.361-4.866-11.436-8.901-17.929-12.159c-1.654-0.763-3.306-1.524-4.956-2.285c-1.691-0.679-3.424-1.269-5.128-1.919
			c-0.862-0.301-1.695-0.674-2.579-0.919l-2.644-0.752l-2.641-0.755c-0.883-0.243-1.749-0.538-2.659-0.694
			c-3.6-0.703-7.205-1.627-10.766-1.992c-1.787-0.247-3.571-0.494-5.352-0.741c-1.917-0.134-3.832-0.268-5.742-0.402l-2.864-0.2
			l-1.233-0.088l-1.316-0.008l-2.631-0.023c-0.877-0.004-1.758,0.083-2.636,0.118c-0.878,0.058-1.757,0.067-2.635,0.161l-2.63,0.296
			c-1.757,0.145-3.493,0.528-5.236,0.796c-6.957,1.266-13.757,3.41-20.253,6.147c-6.501,2.738-12.709,6.076-18.541,9.87
			c-11.657,7.606-21.849,16.994-29.984,27.487c-8.116,10.507-14.12,22.164-17.5,34.137c-0.379,1.506-0.827,2.993-1.152,4.498
			c-0.302,1.511-0.603,3.016-0.903,4.514c-0.208,1.513-0.415,3.02-0.621,4.519c-0.123,0.756-0.169,1.49-0.217,2.223
			c-0.053,0.734-0.106,1.467-0.159,2.198c-0.04,0.746-0.141,1.429-0.133,2.223c-0.004,0.781-0.008,1.56-0.012,2.338
			c-0.004,0.777-0.008,1.553-0.012,2.327l-0.002,0.29c-0.001,0.042,0,0.316-0.003,0.167l0.031,0.558l0.061,1.114
			c0.096,1.482,0.125,2.963,0.273,4.428c0.159,1.465,0.316,2.922,0.473,4.371c0.789,5.783,2.017,11.389,3.585,16.775
			c1.62,5.373,3.622,10.496,5.833,15.381c2.269,4.861,4.811,9.443,7.496,13.773c0.703,1.062,1.4,2.117,2.093,3.165
			c0.348,0.523,0.694,1.044,1.04,1.563c0.368,0.504,0.734,1.005,1.099,1.505c0.732,0.999,1.457,1.991,2.178,2.975
			c0.761,0.954,1.516,1.9,2.265,2.838c0.734,0.952,1.51,1.856,2.294,2.741c0.778,0.891,1.549,1.775,2.313,2.651
			c0.801,0.843,1.595,1.68,2.382,2.509c0.779,0.839,1.57,1.651,2.39,2.419c0.808,0.781,1.609,1.555,2.403,2.322
			c0.802,0.758,1.638,1.463,2.444,2.188c1.597,1.467,3.265,2.784,4.885,4.096c6.507,5.214,13.049,9.284,19.23,12.398
			c6.186,3.105,11.993,5.328,17.183,6.752c1.286,0.403,2.559,0.648,3.763,0.962c0.605,0.147,1.197,0.291,1.777,0.432
			c0.586,0.107,1.16,0.212,1.721,0.315c1.123,0.203,2.195,0.396,3.215,0.58c1.028,0.125,2.004,0.244,2.926,0.356
			c1.848,0.273,3.468,0.298,4.875,0.398c0.705,0.034,1.343,0.1,1.947,0.098c0.604-0.003,1.15-0.006,1.638-0.009
			c1.949-0.011,2.955-0.016,2.955-0.016L283.821,416.878z"/>
	</g>
	
		<text transform="matrix(0.8881 0 0 1 195.7328 346.0379)" display="inline" fill="#231146" font-family="'DeathStar'" font-size="126.3709">cabal</text>
</g>
<g id="Camada_5" display="none">
	<g display="inline">
		<path fill="#F26D23" d="M283.821,416.878c0,0-1.005,0.041-2.952,0.119c-0.487,0.02-1.033,0.042-1.636,0.066
			c-0.604,0.024-1.288-0.019-2.02-0.028c-1.465-0.05-3.183-0.023-5.08-0.235c-0.954-0.083-1.964-0.171-3.028-0.263
			c-1.057-0.153-2.168-0.313-3.333-0.482c-0.583-0.086-1.178-0.174-1.788-0.264c-0.602-0.124-1.218-0.251-1.846-0.381
			c-1.252-0.279-2.578-0.49-3.917-0.858c-5.408-1.285-11.48-3.368-17.985-6.356c-12.994-5.945-27.654-16.036-40.758-31.197
			c-0.809-0.954-1.624-1.916-2.446-2.886c-0.781-1.003-1.569-2.013-2.362-3.032c-0.396-0.51-0.793-1.023-1.192-1.537
			c-0.377-0.531-0.755-1.063-1.134-1.598c-0.756-1.072-1.517-2.153-2.283-3.241c-2.941-4.44-5.748-9.16-8.284-14.199
			c-2.479-5.064-4.751-10.403-6.635-16.041c-1.832-5.653-3.318-11.574-4.343-17.725c-0.214-1.545-0.429-3.098-0.646-4.658
			c-0.204-1.563-0.287-3.148-0.436-4.735l-0.1-1.193l-0.05-0.598l-0.019-0.703c-0.019-0.773-0.038-1.549-0.057-2.326
			s-0.038-1.556-0.057-2.337c-0.031-0.769,0.045-1.647,0.065-2.469c0.034-0.836,0.068-1.674,0.103-2.515
			c0.031-0.842,0.063-1.688,0.168-2.501c0.177-1.645,0.355-3.298,0.533-4.958c0.278-1.646,0.557-3.3,0.838-4.961
			c0.307-1.656,0.74-3.291,1.11-4.95c3.3-13.187,9.464-26.059,17.912-37.694c8.457-11.64,19.184-22.065,31.636-30.641
			c6.23-4.284,12.902-8.101,19.981-11.299c7.076-3.196,14.566-5.782,22.417-7.426c1.974-0.363,3.929-0.832,5.945-1.062l3.012-0.415
			c1.006-0.132,2.029-0.178,3.045-0.269c1.02-0.069,2.035-0.186,3.062-0.212l3.088-0.055l1.547-0.025l1.629,0.068l2.868,0.127
			c1.914,0.085,3.831,0.169,5.751,0.254c2.035,0.219,4.073,0.439,6.115,0.659c4.133,0.335,8.073,1.224,12.107,1.919
			c1.009,0.152,1.998,0.451,2.996,0.697l2.991,0.771l2.996,0.777c1.001,0.255,1.971,0.645,2.96,0.963
			c1.965,0.682,3.949,1.318,5.902,2.061c1.924,0.837,3.851,1.675,5.779,2.514c7.613,3.611,14.893,8.218,21.383,13.868
			c6.498,5.635,12.169,12.285,16.804,19.555c4.646,7.271,8.275,15.135,11.009,23.237c2.722,8.111,4.633,16.456,5.699,24.89
			c0.573,4.215,0.911,8.455,1.086,12.717c0.096,2.131,0.121,4.269,0.102,6.426c-0.003,1.077-0.04,2.163-0.08,3.264l-0.087,1.686
			l-0.069,0.95l-0.03,0.547c-0.085,1.681-0.116,3.633-0.102,5.487c0.017,1.881,0.078,3.771,0.178,5.662
			c0.217,3.781,0.559,7.562,1.087,11.307c1.025,7.494,2.751,14.844,5.156,21.85c2.406,7.004,5.518,13.663,9.407,19.688
			c3.884,6.026,8.541,11.402,13.863,15.909c5.317,4.517,11.291,8.153,17.653,10.976c6.327,2.908,13.203,4.673,20.116,6.028
			c1.751,0.282,3.499,0.563,5.244,0.843c0.863,0.173,1.765,0.205,2.651,0.291l2.663,0.23l2.657,0.234l1.325,0.126l1.343,0.037
			c1.791,0.046,3.579,0.091,5.364,0.137l2.432,0.072l2.864-0.085l2.843-0.09l2.467-0.204l2.47-0.201l2.565-0.328
			c0.853-0.115,1.71-0.199,2.557-0.337l2.532-0.444c6.746-1.158,13.301-2.984,19.537-5.428c6.227-2.463,12.164-5.472,17.693-9.006
			c5.527-3.538,10.628-7.617,15.225-12.114c4.609-4.484,8.76-9.349,12.363-14.521c7.215-10.343,12.308-21.793,15.378-33.429
			c1.552-5.815,2.701-11.671,3.286-17.508c0.214-1.451,0.255-2.916,0.385-4.365c0.056-0.726,0.111-1.45,0.167-2.173
			c0.004,0.012,0.021-0.409,0.014-0.042l0.007-0.29l0.015-0.579l0.032-1.156c0.021-0.77,0.042-1.538,0.064-2.304
			c0.016-0.756,0.061-1.571,0.021-2.2c-0.036-1.343-0.072-2.68-0.108-4.01c-0.305-5.51-1.105-10.926-2.255-16.116
			c-1.191-5.191-2.878-10.141-4.85-14.849c-3.988-9.418-9.515-17.617-15.479-24.726c-6.04-7.062-12.613-12.989-19.229-17.792
			c-6.575-4.868-13.104-8.76-19.241-11.834c-6.146-3.062-11.855-5.415-16.922-7.217c-1.274-0.436-2.5-0.855-3.677-1.258
			c-1.192-0.36-2.336-0.706-3.429-1.036c-2.182-0.697-4.206-1.17-6.007-1.672c-3.622-0.895-6.43-1.504-8.334-1.849
			c-1.904-0.37-2.886-0.562-2.886-0.562l0.205-1.989c0,0,1.014,0.053,2.979,0.157c1.972,0.072,4.881,0.347,8.683,0.781
			c3.791,0.491,8.478,1.181,13.902,2.474c5.423,1.275,11.637,2.992,18.379,5.61c6.742,2.602,14.061,5.997,21.596,10.567
			c7.526,4.573,15.212,10.397,22.559,17.675c7.33,7.281,14.107,16.242,19.482,26.755c2.644,5.27,4.992,10.898,6.793,16.869
			c1.775,5.985,3.003,12.245,3.742,18.76c0.135,1.683,0.271,3.374,0.407,5.075c0.084,0.892,0.081,1.606,0.107,2.382
			c0.021,0.766,0.043,1.534,0.064,2.304l0.032,1.156l0.015,0.579l0.007,0.29l-0.008,0.538c-0.023,0.823-0.045,1.648-0.068,2.474
			c-0.066,1.653-0.046,3.319-0.203,4.988c-0.357,6.687-1.34,13.489-2.824,20.319c-3.05,13.627-8.408,27.433-16.687,40.038
			c-4.118,6.302-8.884,12.337-14.32,17.879c-5.44,5.535-11.516,10.597-18.133,15.022c-13.196,8.926-28.685,15.002-44.904,17.858
			l-3.051,0.507c-1.02,0.153-2.047,0.249-3.072,0.375l-3.08,0.353c-1.053,0.093-2.141,0.153-3.211,0.228l-3.227,0.205l-2.874,0.058
			l-2.865,0.052c-0.61,0.01-0.389-0.005-0.624-0.006l-0.383-0.014l-0.766-0.027l-1.533-0.055c-2.044-0.077-4.091-0.154-6.142-0.231
			l-1.539-0.066l-1.547-0.162l-3.095-0.342l-3.099-0.347c-1.033-0.127-2.067-0.199-3.102-0.42c-2.067-0.382-4.138-0.764-6.211-1.148
			c-8.248-1.804-16.576-4.166-24.421-8.083c-7.86-3.792-15.334-8.687-21.896-14.656c-6.574-5.954-12.198-12.937-16.708-20.471
			c-4.524-7.535-7.974-15.591-10.521-23.824l-0.933-3.094c-0.311-1.031-0.543-2.078-0.817-3.117
			c-0.259-1.041-0.538-2.079-0.777-3.123l-0.661-3.141c-0.889-4.186-1.531-8.405-2.033-12.632c-0.494-4.229-0.778-8.472-0.92-12.726
			c-0.062-2.128-0.08-4.26-0.048-6.402c0.04-2.169,0.112-4.239,0.288-6.573l0.132-1.511l0.096-1.326
			c0.051-0.908,0.104-1.832,0.126-2.766c0.055-1.865,0.075-3.751,0.028-5.639c-0.076-3.776-0.295-7.569-0.729-11.329
			c-0.787-7.535-2.337-14.955-4.563-22.086c-2.238-7.127-5.229-13.955-9.043-20.211c-3.808-6.259-8.45-11.93-13.817-16.786
			c-5.361-4.866-11.436-8.901-17.929-12.159c-1.654-0.763-3.306-1.524-4.956-2.285c-1.691-0.679-3.424-1.269-5.128-1.919
			c-0.862-0.301-1.695-0.674-2.579-0.919l-2.644-0.752l-2.641-0.755c-0.883-0.243-1.749-0.538-2.659-0.694
			c-3.6-0.703-7.205-1.627-10.766-1.992c-1.787-0.247-3.571-0.494-5.352-0.741c-1.917-0.134-3.832-0.268-5.742-0.402l-2.864-0.2
			l-1.233-0.088l-1.316-0.008l-2.631-0.023c-0.877-0.004-1.758,0.083-2.636,0.118c-0.878,0.058-1.757,0.067-2.635,0.161l-2.63,0.296
			c-1.757,0.145-3.493,0.528-5.236,0.796c-6.957,1.266-13.757,3.41-20.253,6.147c-6.501,2.738-12.709,6.076-18.541,9.87
			c-11.657,7.606-21.849,16.994-29.984,27.487c-8.116,10.507-14.12,22.164-17.5,34.137c-0.379,1.506-0.827,2.993-1.152,4.498
			c-0.302,1.511-0.603,3.016-0.903,4.514c-0.208,1.513-0.415,3.02-0.621,4.519c-0.123,0.756-0.169,1.49-0.217,2.223
			c-0.053,0.734-0.106,1.467-0.159,2.198c-0.04,0.746-0.141,1.429-0.133,2.223c-0.004,0.781-0.008,1.56-0.012,2.338
			c-0.004,0.777-0.008,1.553-0.012,2.327l-0.002,0.29c-0.001,0.042,0,0.316-0.003,0.167l0.031,0.558l0.061,1.114
			c0.096,1.482,0.125,2.963,0.273,4.428c0.159,1.465,0.316,2.922,0.473,4.371c0.789,5.783,2.017,11.389,3.585,16.775
			c1.62,5.373,3.622,10.496,5.833,15.381c2.269,4.861,4.811,9.443,7.496,13.773c0.703,1.062,1.4,2.117,2.093,3.165
			c0.348,0.523,0.694,1.044,1.04,1.563c0.368,0.504,0.734,1.005,1.099,1.505c0.732,0.999,1.457,1.991,2.178,2.975
			c0.761,0.954,1.516,1.9,2.265,2.838c0.734,0.952,1.51,1.856,2.294,2.741c0.778,0.891,1.549,1.775,2.313,2.651
			c0.801,0.843,1.595,1.68,2.382,2.509c0.779,0.839,1.57,1.651,2.39,2.419c0.808,0.781,1.609,1.555,2.403,2.322
			c0.802,0.758,1.638,1.463,2.444,2.188c1.597,1.467,3.265,2.784,4.885,4.096c6.507,5.214,13.049,9.284,19.23,12.398
			c6.186,3.105,11.993,5.328,17.183,6.752c1.286,0.403,2.559,0.648,3.763,0.962c0.605,0.147,1.197,0.291,1.777,0.432
			c0.586,0.107,1.16,0.212,1.721,0.315c1.123,0.203,2.195,0.396,3.215,0.58c1.028,0.125,2.004,0.244,2.926,0.356
			c1.848,0.273,3.468,0.298,4.875,0.398c0.705,0.034,1.343,0.1,1.947,0.098c0.604-0.003,1.15-0.006,1.638-0.009
			c1.949-0.011,2.955-0.016,2.955-0.016L283.821,416.878z"/>
	</g>
	
		<text transform="matrix(0.8881 0 0 1 195.7328 346.0379)" display="inline" fill="#F26E23" font-family="'DeathStar'" font-size="126.3709">cabal</text>
</g>
<g id="Camada_6" display="none">
	<g display="inline">
		<path fill="#211244" d="M288.821,416.878c0,0-1.005,0.041-2.952,0.119c-0.487,0.02-1.033,0.042-1.636,0.066
			c-0.604,0.024-1.288-0.019-2.02-0.028c-1.465-0.05-3.183-0.023-5.08-0.235c-0.954-0.083-1.964-0.171-3.028-0.263
			c-1.057-0.153-2.168-0.313-3.333-0.482c-0.583-0.086-1.178-0.174-1.788-0.264c-0.602-0.124-1.218-0.251-1.846-0.381
			c-1.252-0.279-2.578-0.49-3.917-0.858c-5.408-1.285-11.48-3.368-17.985-6.356c-12.994-5.945-27.654-16.036-40.758-31.197
			c-0.809-0.954-1.624-1.916-2.446-2.886c-0.781-1.003-1.569-2.013-2.362-3.032c-0.396-0.51-0.793-1.023-1.192-1.537
			c-0.377-0.531-0.755-1.063-1.134-1.598c-0.756-1.072-1.517-2.153-2.283-3.241c-2.941-4.44-5.748-9.16-8.284-14.199
			c-2.479-5.064-4.751-10.403-6.635-16.041c-1.832-5.653-3.318-11.574-4.343-17.725c-0.214-1.545-0.429-3.098-0.646-4.658
			c-0.204-1.563-0.287-3.148-0.436-4.735l-0.1-1.193l-0.05-0.598l-0.019-0.703c-0.019-0.773-0.038-1.549-0.057-2.326
			s-0.038-1.556-0.057-2.337c-0.031-0.769,0.045-1.647,0.065-2.469c0.034-0.836,0.068-1.674,0.103-2.515
			c0.031-0.842,0.063-1.688,0.168-2.501c0.177-1.645,0.355-3.298,0.533-4.958c0.278-1.646,0.557-3.3,0.838-4.961
			c0.307-1.656,0.74-3.291,1.11-4.95c3.3-13.187,9.464-26.059,17.912-37.694c8.457-11.64,19.184-22.065,31.636-30.641
			c6.23-4.284,12.902-8.101,19.981-11.299c7.076-3.196,14.566-5.782,22.417-7.426c1.974-0.363,3.929-0.832,5.945-1.062l3.012-0.415
			c1.006-0.132,2.029-0.178,3.045-0.269c1.02-0.069,2.035-0.186,3.062-0.212l3.088-0.055l1.547-0.025l1.629,0.068l2.868,0.127
			c1.914,0.085,3.831,0.169,5.751,0.254c2.035,0.219,4.073,0.439,6.115,0.659c4.133,0.335,8.073,1.224,12.107,1.919
			c1.009,0.152,1.998,0.451,2.996,0.697l2.991,0.771l2.996,0.777c1.001,0.255,1.971,0.645,2.96,0.963
			c1.965,0.682,3.949,1.318,5.902,2.061c1.924,0.837,3.851,1.675,5.779,2.514c7.613,3.611,14.893,8.218,21.383,13.868
			c6.498,5.635,12.169,12.285,16.804,19.555c4.646,7.271,8.275,15.135,11.009,23.237c2.722,8.111,4.633,16.456,5.699,24.89
			c0.573,4.215,0.911,8.455,1.086,12.717c0.096,2.131,0.121,4.269,0.102,6.426c-0.003,1.077-0.04,2.163-0.08,3.264l-0.087,1.686
			l-0.069,0.95l-0.03,0.547c-0.085,1.681-0.116,3.633-0.102,5.487c0.017,1.881,0.078,3.771,0.178,5.662
			c0.217,3.781,0.559,7.562,1.087,11.307c1.025,7.494,2.751,14.844,5.156,21.85c2.406,7.004,5.518,13.663,9.407,19.688
			c3.884,6.026,8.541,11.402,13.863,15.909c5.317,4.517,11.291,8.153,17.653,10.976c6.327,2.908,13.203,4.673,20.116,6.028
			c1.751,0.282,3.499,0.563,5.244,0.843c0.863,0.173,1.765,0.205,2.651,0.291l2.663,0.23l2.657,0.234l1.325,0.126l1.343,0.037
			c1.791,0.046,3.579,0.091,5.364,0.137l2.432,0.072l2.864-0.085l2.843-0.09l2.467-0.204l2.47-0.201l2.565-0.328
			c0.853-0.115,1.71-0.199,2.557-0.337l2.532-0.444c6.746-1.158,13.301-2.984,19.537-5.428c6.227-2.463,12.164-5.472,17.693-9.006
			c5.527-3.538,10.628-7.617,15.225-12.114c4.609-4.484,8.76-9.349,12.363-14.521c7.215-10.343,12.308-21.793,15.378-33.429
			c1.552-5.815,2.701-11.671,3.286-17.508c0.214-1.451,0.255-2.916,0.385-4.365c0.056-0.726,0.111-1.45,0.167-2.173
			c0.004,0.012,0.021-0.409,0.014-0.042l0.007-0.29l0.015-0.579l0.032-1.156c0.021-0.77,0.042-1.538,0.064-2.304
			c0.016-0.756,0.061-1.571,0.021-2.2c-0.036-1.343-0.072-2.68-0.108-4.01c-0.305-5.51-1.105-10.926-2.255-16.116
			c-1.191-5.191-2.878-10.141-4.85-14.849c-3.988-9.418-9.515-17.617-15.479-24.726c-6.04-7.062-12.613-12.989-19.229-17.792
			c-6.575-4.868-13.104-8.76-19.241-11.834c-6.146-3.062-11.855-5.415-16.922-7.217c-1.274-0.436-2.5-0.855-3.677-1.258
			c-1.192-0.36-2.336-0.706-3.429-1.036c-2.182-0.697-4.206-1.17-6.007-1.672c-3.622-0.895-6.43-1.504-8.334-1.849
			c-1.904-0.37-2.886-0.562-2.886-0.562l0.205-1.989c0,0,1.014,0.053,2.979,0.157c1.972,0.072,4.881,0.347,8.683,0.781
			c3.791,0.491,8.478,1.181,13.902,2.474c5.423,1.275,11.637,2.992,18.379,5.61c6.742,2.602,14.061,5.997,21.596,10.567
			c7.526,4.573,15.212,10.397,22.559,17.675c7.33,7.281,14.107,16.242,19.482,26.755c2.644,5.27,4.992,10.898,6.793,16.869
			c1.775,5.985,3.003,12.245,3.742,18.76c0.135,1.683,0.271,3.374,0.407,5.075c0.084,0.892,0.081,1.606,0.107,2.382
			c0.021,0.766,0.043,1.534,0.064,2.304l0.032,1.156l0.015,0.579l0.007,0.29l-0.008,0.538c-0.023,0.823-0.045,1.648-0.068,2.474
			c-0.066,1.653-0.046,3.319-0.203,4.988c-0.357,6.687-1.34,13.489-2.824,20.319c-3.05,13.627-8.408,27.433-16.687,40.038
			c-4.118,6.302-8.884,12.337-14.32,17.879c-5.44,5.535-11.516,10.597-18.133,15.022c-13.196,8.926-28.685,15.002-44.904,17.858
			l-3.051,0.507c-1.02,0.153-2.047,0.249-3.072,0.375l-3.08,0.353c-1.053,0.093-2.141,0.153-3.211,0.228l-3.227,0.205l-2.874,0.058
			l-2.865,0.052c-0.61,0.01-0.389-0.005-0.624-0.006l-0.383-0.014l-0.766-0.027l-1.533-0.055c-2.044-0.077-4.091-0.154-6.142-0.231
			l-1.539-0.066l-1.547-0.162l-3.095-0.342l-3.099-0.347c-1.033-0.127-2.067-0.199-3.102-0.42c-2.067-0.382-4.138-0.764-6.211-1.148
			c-8.248-1.804-16.576-4.166-24.421-8.083c-7.86-3.792-15.334-8.687-21.896-14.656c-6.574-5.954-12.198-12.937-16.708-20.471
			c-4.524-7.535-7.974-15.591-10.521-23.824l-0.933-3.094c-0.311-1.031-0.543-2.078-0.817-3.117
			c-0.259-1.041-0.538-2.079-0.777-3.123l-0.661-3.141c-0.889-4.186-1.531-8.405-2.033-12.632c-0.494-4.229-0.778-8.472-0.92-12.726
			c-0.062-2.128-0.08-4.26-0.048-6.402c0.04-2.169,0.112-4.239,0.288-6.573l0.132-1.511l0.096-1.326
			c0.051-0.908,0.104-1.832,0.126-2.766c0.055-1.865,0.075-3.751,0.028-5.639c-0.076-3.776-0.295-7.569-0.729-11.329
			c-0.787-7.535-2.337-14.955-4.563-22.086c-2.238-7.127-5.229-13.955-9.043-20.211c-3.808-6.259-8.45-11.93-13.817-16.786
			c-5.361-4.866-11.436-8.901-17.929-12.159c-1.654-0.763-3.306-1.524-4.956-2.285c-1.691-0.679-3.424-1.269-5.128-1.919
			c-0.862-0.301-1.695-0.674-2.579-0.919l-2.644-0.752l-2.641-0.755c-0.883-0.243-1.749-0.538-2.659-0.694
			c-3.6-0.703-7.205-1.627-10.766-1.992c-1.787-0.247-3.571-0.494-5.352-0.741c-1.917-0.134-3.832-0.268-5.742-0.402l-2.864-0.2
			l-1.233-0.088l-1.316-0.008l-2.631-0.023c-0.877-0.004-1.758,0.083-2.636,0.118c-0.878,0.058-1.757,0.067-2.635,0.161l-2.63,0.296
			c-1.757,0.145-3.493,0.528-5.236,0.796c-6.957,1.266-13.757,3.41-20.253,6.147c-6.501,2.738-12.709,6.076-18.541,9.87
			c-11.657,7.606-21.849,16.994-29.984,27.487c-8.116,10.507-14.12,22.164-17.5,34.137c-0.379,1.506-0.827,2.993-1.152,4.498
			c-0.302,1.511-0.603,3.016-0.903,4.514c-0.208,1.513-0.415,3.02-0.621,4.519c-0.123,0.756-0.169,1.49-0.217,2.223
			c-0.053,0.734-0.106,1.467-0.159,2.198c-0.04,0.746-0.141,1.429-0.133,2.223c-0.004,0.781-0.008,1.56-0.012,2.338
			c-0.004,0.777-0.008,1.553-0.012,2.327l-0.002,0.29c-0.001,0.042,0,0.316-0.003,0.167l0.031,0.558l0.061,1.114
			c0.096,1.482,0.125,2.963,0.273,4.428c0.159,1.465,0.316,2.922,0.473,4.371c0.789,5.783,2.017,11.389,3.585,16.775
			c1.62,5.373,3.622,10.496,5.833,15.381c2.269,4.861,4.811,9.443,7.496,13.773c0.703,1.062,1.4,2.117,2.093,3.165
			c0.348,0.523,0.694,1.044,1.04,1.563c0.368,0.504,0.734,1.005,1.099,1.505c0.732,0.999,1.457,1.991,2.178,2.975
			c0.761,0.954,1.516,1.9,2.265,2.838c0.734,0.952,1.51,1.856,2.294,2.741c0.778,0.891,1.549,1.775,2.313,2.651
			c0.801,0.843,1.595,1.68,2.382,2.509c0.779,0.839,1.57,1.651,2.39,2.419c0.808,0.781,1.609,1.555,2.403,2.322
			c0.802,0.758,1.638,1.463,2.444,2.188c1.597,1.467,3.265,2.784,4.885,4.096c6.507,5.214,13.049,9.284,19.23,12.398
			c6.186,3.105,11.993,5.328,17.183,6.752c1.286,0.403,2.559,0.648,3.763,0.962c0.605,0.147,1.197,0.291,1.777,0.432
			c0.586,0.107,1.16,0.212,1.721,0.315c1.123,0.203,2.195,0.396,3.215,0.58c1.028,0.125,2.004,0.244,2.926,0.356
			c1.848,0.273,3.468,0.298,4.875,0.398c0.705,0.034,1.343,0.1,1.947,0.098c0.604-0.003,1.15-0.006,1.638-0.009
			c1.949-0.011,2.955-0.016,2.955-0.016L288.821,416.878z"/>
	</g>
	<g display="inline">
		<path fill="#F26D23" d="M283.821,416.878c0,0-1.005,0.041-2.952,0.119c-0.487,0.02-1.033,0.042-1.636,0.066
			c-0.604,0.024-1.288-0.019-2.02-0.028c-1.465-0.05-3.183-0.023-5.08-0.235c-0.954-0.083-1.964-0.171-3.028-0.263
			c-1.057-0.153-2.168-0.313-3.333-0.482c-0.583-0.086-1.178-0.174-1.788-0.264c-0.602-0.124-1.218-0.251-1.846-0.381
			c-1.252-0.279-2.578-0.49-3.917-0.858c-5.408-1.285-11.48-3.368-17.985-6.356c-12.994-5.945-27.654-16.036-40.758-31.197
			c-0.809-0.954-1.624-1.916-2.446-2.886c-0.781-1.003-1.569-2.013-2.362-3.032c-0.396-0.51-0.793-1.023-1.192-1.537
			c-0.377-0.531-0.755-1.063-1.134-1.598c-0.756-1.072-1.517-2.153-2.283-3.241c-2.941-4.44-5.748-9.16-8.284-14.199
			c-2.479-5.064-4.751-10.403-6.635-16.041c-1.832-5.653-3.318-11.574-4.343-17.725c-0.214-1.545-0.429-3.098-0.646-4.658
			c-0.204-1.563-0.287-3.148-0.436-4.735l-0.1-1.193l-0.05-0.598l-0.019-0.703c-0.019-0.773-0.038-1.549-0.057-2.326
			s-0.038-1.556-0.057-2.337c-0.031-0.769,0.045-1.647,0.065-2.469c0.034-0.836,0.068-1.674,0.103-2.515
			c0.031-0.842,0.063-1.688,0.168-2.501c0.177-1.645,0.355-3.298,0.533-4.958c0.278-1.646,0.557-3.3,0.838-4.961
			c0.307-1.656,0.74-3.291,1.11-4.95c3.3-13.187,9.464-26.059,17.912-37.694c8.457-11.64,19.184-22.065,31.636-30.641
			c6.23-4.284,12.902-8.101,19.981-11.299c7.076-3.196,14.566-5.782,22.417-7.426c1.974-0.363,3.929-0.832,5.945-1.062l3.012-0.415
			c1.006-0.132,2.029-0.178,3.045-0.269c1.02-0.069,2.035-0.186,3.062-0.212l3.088-0.055l1.547-0.025l1.629,0.068l2.868,0.127
			c1.914,0.085,3.831,0.169,5.751,0.254c2.035,0.219,4.073,0.439,6.115,0.659c4.133,0.335,8.073,1.224,12.107,1.919
			c1.009,0.152,1.998,0.451,2.996,0.697l2.991,0.771l2.996,0.777c1.001,0.255,1.971,0.645,2.96,0.963
			c1.965,0.682,3.949,1.318,5.902,2.061c1.924,0.837,3.851,1.675,5.779,2.514c7.613,3.611,14.893,8.218,21.383,13.868
			c6.498,5.635,12.169,12.285,16.804,19.555c4.646,7.271,8.275,15.135,11.009,23.237c2.722,8.111,4.633,16.456,5.699,24.89
			c0.573,4.215,0.911,8.455,1.086,12.717c0.096,2.131,0.121,4.269,0.102,6.426c-0.003,1.077-0.04,2.163-0.08,3.264l-0.087,1.686
			l-0.069,0.95l-0.03,0.547c-0.085,1.681-0.116,3.633-0.102,5.487c0.017,1.881,0.078,3.771,0.178,5.662
			c0.217,3.781,0.559,7.562,1.087,11.307c1.025,7.494,2.751,14.844,5.156,21.85c2.406,7.004,5.518,13.663,9.407,19.688
			c3.884,6.026,8.541,11.402,13.863,15.909c5.317,4.517,11.291,8.153,17.653,10.976c6.327,2.908,13.203,4.673,20.116,6.028
			c1.751,0.282,3.499,0.563,5.244,0.843c0.863,0.173,1.765,0.205,2.651,0.291l2.663,0.23l2.657,0.234l1.325,0.126l1.343,0.037
			c1.791,0.046,3.579,0.091,5.364,0.137l2.432,0.072l2.864-0.085l2.843-0.09l2.467-0.204l2.47-0.201l2.565-0.328
			c0.853-0.115,1.71-0.199,2.557-0.337l2.532-0.444c6.746-1.158,13.301-2.984,19.537-5.428c6.227-2.463,12.164-5.472,17.693-9.006
			c5.527-3.538,10.628-7.617,15.225-12.114c4.609-4.484,8.76-9.349,12.363-14.521c7.215-10.343,12.308-21.793,15.378-33.429
			c1.552-5.815,2.701-11.671,3.286-17.508c0.214-1.451,0.255-2.916,0.385-4.365c0.056-0.726,0.111-1.45,0.167-2.173
			c0.004,0.012,0.021-0.409,0.014-0.042l0.007-0.29l0.015-0.579l0.032-1.156c0.021-0.77,0.042-1.538,0.064-2.304
			c0.016-0.756,0.061-1.571,0.021-2.2c-0.036-1.343-0.072-2.68-0.108-4.01c-0.305-5.51-1.105-10.926-2.255-16.116
			c-1.191-5.191-2.878-10.141-4.85-14.849c-3.988-9.418-9.515-17.617-15.479-24.726c-6.04-7.062-12.613-12.989-19.229-17.792
			c-6.575-4.868-13.104-8.76-19.241-11.834c-6.146-3.062-11.855-5.415-16.922-7.217c-1.274-0.436-2.5-0.855-3.677-1.258
			c-1.192-0.36-2.336-0.706-3.429-1.036c-2.182-0.697-4.206-1.17-6.007-1.672c-3.622-0.895-6.43-1.504-8.334-1.849
			c-1.904-0.37-2.886-0.562-2.886-0.562l0.205-1.989c0,0,1.014,0.053,2.979,0.157c1.972,0.072,4.881,0.347,8.683,0.781
			c3.791,0.491,8.478,1.181,13.902,2.474c5.423,1.275,11.637,2.992,18.379,5.61c6.742,2.602,14.061,5.997,21.596,10.567
			c7.526,4.573,15.212,10.397,22.559,17.675c7.33,7.281,14.107,16.242,19.482,26.755c2.644,5.27,4.992,10.898,6.793,16.869
			c1.775,5.985,3.003,12.245,3.742,18.76c0.135,1.683,0.271,3.374,0.407,5.075c0.084,0.892,0.081,1.606,0.107,2.382
			c0.021,0.766,0.043,1.534,0.064,2.304l0.032,1.156l0.015,0.579l0.007,0.29l-0.008,0.538c-0.023,0.823-0.045,1.648-0.068,2.474
			c-0.066,1.653-0.046,3.319-0.203,4.988c-0.357,6.687-1.34,13.489-2.824,20.319c-3.05,13.627-8.408,27.433-16.687,40.038
			c-4.118,6.302-8.884,12.337-14.32,17.879c-5.44,5.535-11.516,10.597-18.133,15.022c-13.196,8.926-28.685,15.002-44.904,17.858
			l-3.051,0.507c-1.02,0.153-2.047,0.249-3.072,0.375l-3.08,0.353c-1.053,0.093-2.141,0.153-3.211,0.228l-3.227,0.205l-2.874,0.058
			l-2.865,0.052c-0.61,0.01-0.389-0.005-0.624-0.006l-0.383-0.014l-0.766-0.027l-1.533-0.055c-2.044-0.077-4.091-0.154-6.142-0.231
			l-1.539-0.066l-1.547-0.162l-3.095-0.342l-3.099-0.347c-1.033-0.127-2.067-0.199-3.102-0.42c-2.067-0.382-4.138-0.764-6.211-1.148
			c-8.248-1.804-16.576-4.166-24.421-8.083c-7.86-3.792-15.334-8.687-21.896-14.656c-6.574-5.954-12.198-12.937-16.708-20.471
			c-4.524-7.535-7.974-15.591-10.521-23.824l-0.933-3.094c-0.311-1.031-0.543-2.078-0.817-3.117
			c-0.259-1.041-0.538-2.079-0.777-3.123l-0.661-3.141c-0.889-4.186-1.531-8.405-2.033-12.632c-0.494-4.229-0.778-8.472-0.92-12.726
			c-0.062-2.128-0.08-4.26-0.048-6.402c0.04-2.169,0.112-4.239,0.288-6.573l0.132-1.511l0.096-1.326
			c0.051-0.908,0.104-1.832,0.126-2.766c0.055-1.865,0.075-3.751,0.028-5.639c-0.076-3.776-0.295-7.569-0.729-11.329
			c-0.787-7.535-2.337-14.955-4.563-22.086c-2.238-7.127-5.229-13.955-9.043-20.211c-3.808-6.259-8.45-11.93-13.817-16.786
			c-5.361-4.866-11.436-8.901-17.929-12.159c-1.654-0.763-3.306-1.524-4.956-2.285c-1.691-0.679-3.424-1.269-5.128-1.919
			c-0.862-0.301-1.695-0.674-2.579-0.919l-2.644-0.752l-2.641-0.755c-0.883-0.243-1.749-0.538-2.659-0.694
			c-3.6-0.703-7.205-1.627-10.766-1.992c-1.787-0.247-3.571-0.494-5.352-0.741c-1.917-0.134-3.832-0.268-5.742-0.402l-2.864-0.2
			l-1.233-0.088l-1.316-0.008l-2.631-0.023c-0.877-0.004-1.758,0.083-2.636,0.118c-0.878,0.058-1.757,0.067-2.635,0.161l-2.63,0.296
			c-1.757,0.145-3.493,0.528-5.236,0.796c-6.957,1.266-13.757,3.41-20.253,6.147c-6.501,2.738-12.709,6.076-18.541,9.87
			c-11.657,7.606-21.849,16.994-29.984,27.487c-8.116,10.507-14.12,22.164-17.5,34.137c-0.379,1.506-0.827,2.993-1.152,4.498
			c-0.302,1.511-0.603,3.016-0.903,4.514c-0.208,1.513-0.415,3.02-0.621,4.519c-0.123,0.756-0.169,1.49-0.217,2.223
			c-0.053,0.734-0.106,1.467-0.159,2.198c-0.04,0.746-0.141,1.429-0.133,2.223c-0.004,0.781-0.008,1.56-0.012,2.338
			c-0.004,0.777-0.008,1.553-0.012,2.327l-0.002,0.29c-0.001,0.042,0,0.316-0.003,0.167l0.031,0.558l0.061,1.114
			c0.096,1.482,0.125,2.963,0.273,4.428c0.159,1.465,0.316,2.922,0.473,4.371c0.789,5.783,2.017,11.389,3.585,16.775
			c1.62,5.373,3.622,10.496,5.833,15.381c2.269,4.861,4.811,9.443,7.496,13.773c0.703,1.062,1.4,2.117,2.093,3.165
			c0.348,0.523,0.694,1.044,1.04,1.563c0.368,0.504,0.734,1.005,1.099,1.505c0.732,0.999,1.457,1.991,2.178,2.975
			c0.761,0.954,1.516,1.9,2.265,2.838c0.734,0.952,1.51,1.856,2.294,2.741c0.778,0.891,1.549,1.775,2.313,2.651
			c0.801,0.843,1.595,1.68,2.382,2.509c0.779,0.839,1.57,1.651,2.39,2.419c0.808,0.781,1.609,1.555,2.403,2.322
			c0.802,0.758,1.638,1.463,2.444,2.188c1.597,1.467,3.265,2.784,4.885,4.096c6.507,5.214,13.049,9.284,19.23,12.398
			c6.186,3.105,11.993,5.328,17.183,6.752c1.286,0.403,2.559,0.648,3.763,0.962c0.605,0.147,1.197,0.291,1.777,0.432
			c0.586,0.107,1.16,0.212,1.721,0.315c1.123,0.203,2.195,0.396,3.215,0.58c1.028,0.125,2.004,0.244,2.926,0.356
			c1.848,0.273,3.468,0.298,4.875,0.398c0.705,0.034,1.343,0.1,1.947,0.098c0.604-0.003,1.15-0.006,1.638-0.009
			c1.949-0.011,2.955-0.016,2.955-0.016L283.821,416.878z"/>
	</g>
	
		<text transform="matrix(0.8881 0 0 1 195.7328 346.0379)" display="inline" fill="#231146" font-family="'DeathStar'" font-size="126.3709">cabal</text>
</g>
<g id="Camada_7" display="none">
	<g display="inline">
		<path fill="#F89E1E" d="M298.934,400.23c0,0-1.005,0.041-2.952,0.119c-0.487,0.02-1.033,0.042-1.636,0.066
			c-0.604,0.024-1.288-0.019-2.02-0.028c-1.465-0.05-3.183-0.023-5.08-0.235c-0.954-0.083-1.964-0.171-3.028-0.263
			c-1.057-0.153-2.168-0.313-3.333-0.482c-0.583-0.086-1.178-0.174-1.788-0.264c-0.602-0.124-1.218-0.251-1.846-0.381
			c-1.252-0.279-2.578-0.49-3.917-0.858c-5.408-1.285-11.48-3.368-17.985-6.356c-12.994-5.945-27.654-16.036-40.758-31.197
			c-0.809-0.954-1.624-1.916-2.446-2.886c-0.781-1.003-1.569-2.013-2.362-3.032c-0.396-0.51-0.793-1.023-1.192-1.537
			c-0.377-0.531-0.755-1.063-1.134-1.598c-0.756-1.072-1.517-2.153-2.283-3.241c-2.941-4.44-5.748-9.16-8.284-14.199
			c-2.479-5.064-4.751-10.403-6.635-16.041c-1.832-5.653-3.318-11.574-4.343-17.725c-0.214-1.545-0.429-3.098-0.646-4.658
			c-0.204-1.563-0.287-3.148-0.436-4.735l-0.1-1.193l-0.05-0.598l-0.019-0.703c-0.019-0.773-0.038-1.549-0.057-2.326
			s-0.038-1.556-0.057-2.337c-0.031-0.769,0.045-1.647,0.065-2.469c0.034-0.836,0.068-1.674,0.103-2.515
			c0.031-0.842,0.063-1.688,0.168-2.501c0.177-1.645,0.355-3.298,0.533-4.958c0.278-1.646,0.557-3.3,0.838-4.961
			c0.307-1.656,0.74-3.291,1.11-4.95c3.3-13.187,9.464-26.059,17.912-37.694c8.457-11.64,19.184-22.065,31.636-30.641
			c6.23-4.284,12.902-8.101,19.981-11.299c7.076-3.196,14.566-5.782,22.417-7.426c1.974-0.363,3.929-0.832,5.945-1.062l3.012-0.415
			c1.006-0.132,2.029-0.178,3.045-0.269c1.02-0.069,2.035-0.186,3.062-0.212l3.088-0.055l1.547-0.025l1.629,0.068l2.868,0.127
			c1.914,0.085,3.831,0.169,5.751,0.254c2.035,0.219,4.073,0.439,6.115,0.659c4.133,0.335,8.073,1.224,12.107,1.919
			c1.009,0.152,1.998,0.451,2.996,0.697l2.991,0.771l2.996,0.777c1.001,0.255,1.971,0.645,2.96,0.963
			c1.965,0.682,3.949,1.318,5.902,2.061c1.924,0.837,3.851,1.675,5.779,2.514c7.613,3.611,14.893,8.218,21.383,13.868
			c6.498,5.635,12.169,12.285,16.804,19.555c4.646,7.271,8.275,15.135,11.009,23.237c2.722,8.111,4.633,16.456,5.699,24.89
			c0.573,4.215,0.911,8.455,1.086,12.717c0.096,2.131,0.121,4.269,0.102,6.426c-0.003,1.077-0.04,2.163-0.08,3.264l-0.087,1.686
			l-0.069,0.95l-0.03,0.547c-0.085,1.681-0.116,3.633-0.102,5.487c0.017,1.881,0.078,3.771,0.178,5.662
			c0.217,3.781,0.559,7.562,1.087,11.307c1.025,7.494,2.751,14.844,5.156,21.85c2.406,7.004,5.518,13.663,9.407,19.688
			c3.884,6.026,8.541,11.402,13.863,15.909c5.317,4.517,11.291,8.153,17.653,10.976c6.327,2.908,13.203,4.673,20.116,6.028
			c1.751,0.281,3.499,0.563,5.244,0.843c0.863,0.173,1.765,0.205,2.651,0.291l2.663,0.23l2.657,0.234l1.325,0.126l1.343,0.037
			c1.791,0.046,3.579,0.091,5.364,0.137l2.432,0.072l2.864-0.085l2.843-0.09l2.467-0.204l2.47-0.201l2.565-0.328
			c0.853-0.116,1.71-0.199,2.557-0.337l2.532-0.444c6.746-1.158,13.301-2.984,19.537-5.428c6.227-2.463,12.164-5.472,17.693-9.006
			c5.527-3.538,10.628-7.617,15.225-12.114c4.609-4.484,8.76-9.349,12.363-14.521c7.215-10.342,12.308-21.793,15.378-33.429
			c1.552-5.815,2.701-11.671,3.286-17.508c0.214-1.451,0.255-2.916,0.385-4.365c0.056-0.726,0.111-1.45,0.167-2.173
			c0.004,0.012,0.021-0.409,0.014-0.042l0.007-0.29l0.015-0.579l0.032-1.156c0.021-0.77,0.042-1.538,0.063-2.304
			c0.017-0.756,0.061-1.571,0.021-2.2c-0.036-1.343-0.072-2.68-0.108-4.01c-0.305-5.51-1.105-10.926-2.255-16.116
			c-1.191-5.191-2.878-10.141-4.85-14.849c-3.988-9.418-9.515-17.617-15.479-24.726c-6.04-7.062-12.613-12.989-19.229-17.792
			c-6.575-4.868-13.104-8.76-19.241-11.834c-6.146-3.062-11.855-5.415-16.922-7.217c-1.274-0.436-2.5-0.855-3.677-1.258
			c-1.193-0.36-2.336-0.706-3.429-1.036c-2.182-0.697-4.206-1.17-6.007-1.672c-3.622-0.895-6.43-1.504-8.334-1.849
			c-1.904-0.37-2.886-0.562-2.886-0.562l0.205-1.989c0,0,1.014,0.053,2.979,0.157c1.972,0.072,4.881,0.347,8.683,0.781
			c3.791,0.491,8.478,1.181,13.902,2.474c5.423,1.275,11.637,2.992,18.379,5.61c6.741,2.602,14.061,5.997,21.596,10.567
			c7.526,4.573,15.212,10.397,22.559,17.675c7.33,7.281,14.107,16.242,19.482,26.755c2.644,5.27,4.992,10.898,6.793,16.869
			c1.775,5.985,3.003,12.245,3.742,18.76c0.135,1.683,0.271,3.374,0.407,5.075c0.084,0.892,0.081,1.606,0.107,2.382
			c0.021,0.766,0.043,1.534,0.064,2.304l0.032,1.156l0.015,0.579l0.007,0.29l-0.008,0.538c-0.023,0.823-0.045,1.648-0.068,2.474
			c-0.066,1.653-0.046,3.319-0.203,4.988c-0.357,6.687-1.34,13.489-2.824,20.319c-3.05,13.627-8.408,27.433-16.687,40.038
			c-4.118,6.302-8.884,12.337-14.32,17.879c-5.44,5.535-11.517,10.597-18.133,15.022c-13.196,8.926-28.685,15.002-44.904,17.858
			l-3.051,0.507c-1.02,0.153-2.047,0.249-3.072,0.375l-3.08,0.353c-1.053,0.093-2.141,0.153-3.211,0.228l-3.227,0.205l-2.874,0.058
			l-2.865,0.052c-0.61,0.01-0.389-0.005-0.624-0.006l-0.383-0.014l-0.766-0.027l-1.533-0.055c-2.044-0.077-4.091-0.154-6.142-0.231
			l-1.539-0.066l-1.547-0.162l-3.095-0.342l-3.099-0.347c-1.033-0.127-2.067-0.199-3.102-0.42c-2.067-0.382-4.138-0.764-6.211-1.148
			c-8.248-1.804-16.576-4.166-24.421-8.083c-7.86-3.792-15.334-8.687-21.896-14.656c-6.574-5.954-12.198-12.937-16.708-20.471
			c-4.524-7.535-7.974-15.591-10.521-23.824l-0.933-3.094c-0.311-1.031-0.543-2.078-0.817-3.117
			c-0.259-1.041-0.538-2.079-0.777-3.123l-0.661-3.141c-0.889-4.186-1.531-8.405-2.033-12.632c-0.494-4.229-0.778-8.472-0.92-12.726
			c-0.062-2.128-0.08-4.26-0.048-6.402c0.04-2.169,0.112-4.239,0.288-6.573l0.132-1.511l0.096-1.326
			c0.051-0.908,0.104-1.832,0.126-2.766c0.055-1.865,0.075-3.751,0.028-5.639c-0.076-3.776-0.295-7.569-0.729-11.329
			c-0.787-7.535-2.337-14.955-4.563-22.086c-2.238-7.127-5.229-13.955-9.043-20.211c-3.808-6.259-8.45-11.93-13.817-16.786
			c-5.361-4.866-11.436-8.901-17.929-12.159c-1.654-0.763-3.306-1.524-4.956-2.285c-1.691-0.679-3.424-1.269-5.128-1.919
			c-0.862-0.301-1.695-0.674-2.579-0.919l-2.644-0.752l-2.641-0.755c-0.883-0.243-1.749-0.538-2.659-0.694
			c-3.6-0.703-7.205-1.627-10.766-1.992c-1.787-0.247-3.571-0.494-5.352-0.741c-1.917-0.134-3.832-0.268-5.742-0.402l-2.864-0.2
			l-1.233-0.088l-1.316-0.008l-2.631-0.023c-0.877-0.004-1.758,0.083-2.636,0.118c-0.878,0.058-1.757,0.067-2.635,0.161l-2.63,0.296
			c-1.757,0.145-3.493,0.528-5.236,0.796c-6.957,1.266-13.757,3.41-20.253,6.147c-6.501,2.738-12.709,6.076-18.541,9.87
			c-11.657,7.606-21.849,16.994-29.984,27.487c-8.116,10.507-14.12,22.164-17.5,34.137c-0.379,1.506-0.827,2.993-1.152,4.498
			c-0.302,1.511-0.603,3.016-0.903,4.514c-0.208,1.513-0.415,3.02-0.621,4.519c-0.123,0.756-0.169,1.49-0.217,2.223
			c-0.053,0.734-0.106,1.467-0.159,2.198c-0.04,0.746-0.141,1.429-0.133,2.223c-0.004,0.781-0.008,1.56-0.012,2.338
			c-0.004,0.777-0.008,1.553-0.012,2.327l-0.002,0.29c-0.001,0.042,0,0.316-0.003,0.167l0.031,0.558l0.061,1.114
			c0.096,1.482,0.125,2.963,0.273,4.428c0.159,1.465,0.316,2.922,0.473,4.371c0.789,5.783,2.017,11.389,3.585,16.775
			c1.62,5.373,3.622,10.496,5.833,15.381c2.269,4.861,4.811,9.443,7.496,13.773c0.703,1.063,1.4,2.117,2.093,3.165
			c0.348,0.523,0.694,1.044,1.04,1.563c0.368,0.504,0.734,1.005,1.099,1.505c0.732,0.999,1.457,1.991,2.178,2.975
			c0.761,0.954,1.516,1.9,2.265,2.838c0.734,0.952,1.51,1.856,2.294,2.741c0.778,0.891,1.549,1.775,2.313,2.651
			c0.801,0.843,1.595,1.68,2.382,2.509c0.779,0.839,1.57,1.651,2.39,2.419c0.808,0.781,1.609,1.555,2.403,2.322
			c0.802,0.758,1.638,1.463,2.444,2.188c1.597,1.467,3.265,2.784,4.885,4.096c6.507,5.214,13.049,9.284,19.23,12.398
			c6.186,3.105,11.993,5.328,17.183,6.752c1.286,0.403,2.559,0.648,3.763,0.962c0.605,0.147,1.197,0.291,1.777,0.432
			c0.586,0.107,1.16,0.212,1.721,0.315c1.123,0.203,2.195,0.396,3.215,0.58c1.028,0.125,2.004,0.244,2.926,0.356
			c1.848,0.273,3.468,0.298,4.875,0.398c0.705,0.034,1.343,0.1,1.947,0.098c0.604-0.003,1.15-0.006,1.638-0.009
			c1.949-0.011,2.955-0.016,2.955-0.016L298.934,400.23z"/>
	</g>
	<g display="inline">
		<path fill="#5B2E8E" d="M293.934,400.23c0,0-1.005,0.041-2.952,0.119c-0.487,0.02-1.033,0.042-1.636,0.066
			c-0.604,0.024-1.288-0.019-2.02-0.028c-1.465-0.05-3.183-0.023-5.08-0.235c-0.954-0.083-1.964-0.171-3.028-0.263
			c-1.057-0.153-2.168-0.313-3.333-0.482c-0.583-0.086-1.178-0.174-1.788-0.264c-0.602-0.124-1.218-0.251-1.846-0.381
			c-1.252-0.279-2.578-0.49-3.917-0.858c-5.408-1.285-11.48-3.368-17.985-6.356c-12.994-5.945-27.654-16.036-40.758-31.197
			c-0.809-0.954-1.624-1.916-2.446-2.886c-0.781-1.003-1.569-2.013-2.362-3.032c-0.396-0.51-0.793-1.023-1.192-1.537
			c-0.377-0.531-0.755-1.063-1.134-1.598c-0.756-1.072-1.517-2.153-2.283-3.241c-2.941-4.44-5.748-9.16-8.284-14.199
			c-2.479-5.064-4.751-10.403-6.635-16.041c-1.832-5.653-3.318-11.574-4.343-17.725c-0.214-1.545-0.429-3.098-0.646-4.658
			c-0.204-1.563-0.287-3.148-0.436-4.735l-0.1-1.193l-0.05-0.598l-0.019-0.703c-0.019-0.773-0.038-1.549-0.057-2.326
			s-0.038-1.556-0.057-2.337c-0.031-0.769,0.045-1.647,0.065-2.469c0.034-0.836,0.068-1.674,0.103-2.515
			c0.031-0.842,0.063-1.688,0.168-2.501c0.177-1.645,0.355-3.298,0.533-4.958c0.278-1.646,0.557-3.3,0.838-4.961
			c0.307-1.656,0.74-3.291,1.11-4.95c3.3-13.187,9.464-26.059,17.912-37.694c8.457-11.64,19.184-22.065,31.636-30.641
			c6.23-4.284,12.902-8.101,19.981-11.299c7.076-3.196,14.566-5.782,22.417-7.426c1.974-0.363,3.929-0.832,5.945-1.062l3.012-0.415
			c1.006-0.132,2.029-0.178,3.045-0.269c1.02-0.069,2.035-0.186,3.062-0.212l3.088-0.055l1.547-0.025l1.629,0.068l2.868,0.127
			c1.914,0.085,3.831,0.169,5.751,0.254c2.035,0.219,4.073,0.439,6.115,0.659c4.133,0.335,8.073,1.224,12.107,1.919
			c1.009,0.152,1.998,0.451,2.996,0.697l2.991,0.771l2.996,0.777c1.001,0.255,1.971,0.645,2.96,0.963
			c1.965,0.682,3.949,1.318,5.902,2.061c1.924,0.837,3.851,1.675,5.779,2.514c7.613,3.611,14.893,8.218,21.383,13.868
			c6.498,5.635,12.169,12.285,16.804,19.555c4.646,7.271,8.275,15.135,11.009,23.237c2.722,8.111,4.633,16.456,5.699,24.89
			c0.573,4.215,0.911,8.455,1.086,12.717c0.096,2.131,0.121,4.269,0.102,6.426c-0.003,1.077-0.04,2.163-0.08,3.264l-0.087,1.686
			l-0.069,0.95l-0.03,0.547c-0.085,1.681-0.116,3.633-0.102,5.487c0.017,1.881,0.078,3.771,0.178,5.662
			c0.217,3.781,0.559,7.562,1.087,11.307c1.025,7.494,2.751,14.844,5.156,21.85c2.406,7.004,5.518,13.663,9.407,19.688
			c3.884,6.026,8.541,11.402,13.863,15.909c5.317,4.517,11.291,8.153,17.653,10.976c6.327,2.908,13.203,4.673,20.116,6.028
			c1.751,0.281,3.499,0.563,5.244,0.843c0.863,0.173,1.765,0.205,2.651,0.291l2.663,0.23l2.657,0.234l1.325,0.126l1.343,0.037
			c1.791,0.046,3.579,0.091,5.364,0.137l2.432,0.072l2.864-0.085l2.843-0.09l2.467-0.204l2.47-0.201l2.565-0.328
			c0.853-0.116,1.71-0.199,2.557-0.337l2.532-0.444c6.746-1.158,13.301-2.984,19.537-5.428c6.227-2.463,12.164-5.472,17.693-9.006
			c5.527-3.538,10.628-7.617,15.225-12.114c4.609-4.484,8.76-9.349,12.363-14.521c7.215-10.342,12.308-21.793,15.378-33.429
			c1.552-5.815,2.701-11.671,3.286-17.508c0.214-1.451,0.255-2.916,0.385-4.365c0.056-0.726,0.111-1.45,0.167-2.173
			c0.004,0.012,0.021-0.409,0.014-0.042l0.007-0.29l0.015-0.579l0.032-1.156c0.021-0.77,0.042-1.538,0.063-2.304
			c0.017-0.756,0.061-1.571,0.021-2.2c-0.036-1.343-0.072-2.68-0.108-4.01c-0.305-5.51-1.105-10.926-2.255-16.116
			c-1.191-5.191-2.878-10.141-4.85-14.849c-3.988-9.418-9.515-17.617-15.479-24.726c-6.04-7.062-12.613-12.989-19.229-17.792
			c-6.575-4.868-13.104-8.76-19.241-11.834c-6.146-3.062-11.855-5.415-16.922-7.217c-1.274-0.436-2.5-0.855-3.677-1.258
			c-1.193-0.36-2.336-0.706-3.429-1.036c-2.182-0.697-4.206-1.17-6.007-1.672c-3.622-0.895-6.43-1.504-8.334-1.849
			c-1.904-0.37-2.886-0.562-2.886-0.562l0.205-1.989c0,0,1.014,0.053,2.979,0.157c1.972,0.072,4.881,0.347,8.683,0.781
			c3.791,0.491,8.478,1.181,13.902,2.474c5.423,1.275,11.637,2.992,18.379,5.61c6.741,2.602,14.061,5.997,21.596,10.567
			c7.526,4.573,15.212,10.397,22.559,17.675c7.33,7.281,14.107,16.242,19.482,26.755c2.644,5.27,4.992,10.898,6.793,16.869
			c1.775,5.985,3.003,12.245,3.742,18.76c0.135,1.683,0.271,3.374,0.407,5.075c0.084,0.892,0.081,1.606,0.107,2.382
			c0.021,0.766,0.043,1.534,0.064,2.304l0.032,1.156l0.015,0.579l0.007,0.29l-0.008,0.538c-0.023,0.823-0.045,1.648-0.068,2.474
			c-0.066,1.653-0.046,3.319-0.203,4.988c-0.357,6.687-1.34,13.489-2.824,20.319c-3.05,13.627-8.408,27.433-16.687,40.038
			c-4.118,6.302-8.884,12.337-14.32,17.879c-5.44,5.535-11.517,10.597-18.133,15.022c-13.196,8.926-28.685,15.002-44.904,17.858
			l-3.051,0.507c-1.02,0.153-2.047,0.249-3.072,0.375l-3.08,0.353c-1.053,0.093-2.141,0.153-3.211,0.228l-3.227,0.205l-2.874,0.058
			l-2.865,0.052c-0.61,0.01-0.389-0.005-0.624-0.006l-0.383-0.014l-0.766-0.027l-1.533-0.055c-2.044-0.077-4.091-0.154-6.142-0.231
			l-1.539-0.066l-1.547-0.162l-3.095-0.342l-3.099-0.347c-1.033-0.127-2.067-0.199-3.102-0.42c-2.067-0.382-4.138-0.764-6.211-1.148
			c-8.248-1.804-16.576-4.166-24.421-8.083c-7.86-3.792-15.334-8.687-21.896-14.656c-6.574-5.954-12.198-12.937-16.708-20.471
			c-4.524-7.535-7.974-15.591-10.521-23.824l-0.933-3.094c-0.311-1.031-0.543-2.078-0.817-3.117
			c-0.259-1.041-0.538-2.079-0.777-3.123l-0.661-3.141c-0.889-4.186-1.531-8.405-2.033-12.632c-0.494-4.229-0.778-8.472-0.92-12.726
			c-0.062-2.128-0.08-4.26-0.048-6.402c0.04-2.169,0.112-4.239,0.288-6.573l0.132-1.511l0.096-1.326
			c0.051-0.908,0.104-1.832,0.126-2.766c0.055-1.865,0.075-3.751,0.028-5.639c-0.076-3.776-0.295-7.569-0.729-11.329
			c-0.787-7.535-2.337-14.955-4.563-22.086c-2.238-7.127-5.229-13.955-9.043-20.211c-3.808-6.259-8.45-11.93-13.817-16.786
			c-5.361-4.866-11.436-8.901-17.929-12.159c-1.654-0.763-3.306-1.524-4.956-2.285c-1.691-0.679-3.424-1.269-5.128-1.919
			c-0.862-0.301-1.695-0.674-2.579-0.919l-2.644-0.752l-2.641-0.755c-0.883-0.243-1.749-0.538-2.659-0.694
			c-3.6-0.703-7.205-1.627-10.766-1.992c-1.787-0.247-3.571-0.494-5.352-0.741c-1.917-0.134-3.832-0.268-5.742-0.402l-2.864-0.2
			l-1.233-0.088l-1.316-0.008l-2.631-0.023c-0.877-0.004-1.758,0.083-2.636,0.118c-0.878,0.058-1.757,0.067-2.635,0.161l-2.63,0.296
			c-1.757,0.145-3.493,0.528-5.236,0.796c-6.957,1.266-13.757,3.41-20.253,6.147c-6.501,2.738-12.709,6.076-18.541,9.87
			c-11.657,7.606-21.849,16.994-29.984,27.487c-8.116,10.507-14.12,22.164-17.5,34.137c-0.379,1.506-0.827,2.993-1.152,4.498
			c-0.302,1.511-0.603,3.016-0.903,4.514c-0.208,1.513-0.415,3.02-0.621,4.519c-0.123,0.756-0.169,1.49-0.217,2.223
			c-0.053,0.734-0.106,1.467-0.159,2.198c-0.04,0.746-0.141,1.429-0.133,2.223c-0.004,0.781-0.008,1.56-0.012,2.338
			c-0.004,0.777-0.008,1.553-0.012,2.327l-0.002,0.29c-0.001,0.042,0,0.316-0.003,0.167l0.031,0.558l0.061,1.114
			c0.096,1.482,0.125,2.963,0.273,4.428c0.159,1.465,0.316,2.922,0.473,4.371c0.789,5.783,2.017,11.389,3.585,16.775
			c1.62,5.373,3.622,10.496,5.833,15.381c2.269,4.861,4.811,9.443,7.496,13.773c0.703,1.063,1.4,2.117,2.093,3.165
			c0.348,0.523,0.694,1.044,1.04,1.563c0.368,0.504,0.734,1.005,1.099,1.505c0.732,0.999,1.457,1.991,2.178,2.975
			c0.761,0.954,1.516,1.9,2.265,2.838c0.734,0.952,1.51,1.856,2.294,2.741c0.778,0.891,1.549,1.775,2.313,2.651
			c0.801,0.843,1.595,1.68,2.382,2.509c0.779,0.839,1.57,1.651,2.39,2.419c0.808,0.781,1.609,1.555,2.403,2.322
			c0.802,0.758,1.638,1.463,2.444,2.188c1.597,1.467,3.265,2.784,4.885,4.096c6.507,5.214,13.049,9.284,19.23,12.398
			c6.186,3.105,11.993,5.328,17.183,6.752c1.286,0.403,2.559,0.648,3.763,0.962c0.605,0.147,1.197,0.291,1.777,0.432
			c0.586,0.107,1.16,0.212,1.721,0.315c1.123,0.203,2.195,0.396,3.215,0.58c1.028,0.125,2.004,0.244,2.926,0.356
			c1.848,0.273,3.468,0.298,4.875,0.398c0.705,0.034,1.343,0.1,1.947,0.098c0.604-0.003,1.15-0.006,1.638-0.009
			c1.949-0.011,2.955-0.016,2.955-0.016L293.934,400.23z"/>
	</g>
	
		<text transform="matrix(0.8881 0 0 1 205.8462 329.3903)" display="inline" fill="#5B2E8E" font-family="'DeathStar'" font-size="126.3709">cabal</text>
</g>
<g id="Camada_8">
	<path fill="none" stroke="#5B2E8E" stroke-width="20" stroke-linecap="square" stroke-miterlimit="10" d="M302.58,392.443
		c-52.028,2.908-107.925-49.44-110.513-110.513s59.862-111.842,110.513-110.513c110.833,2.908,100.084,110.513,100.084,110.513
		s-10.249,110.513,99.131,110.513c61.044,0,108.739-46.532,110.513-110.513s-54.123-104.697-110.513-110.513"/>
	<text transform="matrix(0.8881 0 0 1 220.5149 322.6035)" fill="#5B2E8E" font-family="'DeathStar'" font-size="126.3709">cabal</text>
</g>
<g id="Camada_9" display="none">
	<path display="inline" fill="none" stroke="#F47821" stroke-width="20" stroke-linecap="square" stroke-miterlimit="10" d="
		M265.58,410.443c-52.028,2.908-107.925-49.44-110.513-110.513s59.862-111.842,110.513-110.513
		c110.833,2.908,100.084,110.513,100.084,110.513s-10.249,110.513,99.131,110.513c61.044,0,108.739-46.532,110.513-110.513
		s-54.123-104.697-110.513-110.513"/>
	
		<text transform="matrix(0.8881 0 0 1 183.5149 340.6035)" display="inline" fill="#F47821" font-family="'DeathStar'" font-size="126.3709">cabal</text>
</g>
<g id="Camada_10" display="none">
	<g display="inline">
		<path fill="#F47821" d="M297.105,446.46c0,0-1.006-0.006-2.956-0.018c-0.487-0.003-1.034-0.006-1.638-0.01
			c-0.22,0.005-0.831-0.022-1.33-0.041c-0.524-0.023-1.07-0.048-1.639-0.073c-2.222-0.118-5.098-0.24-7.492-0.594
			c-1.279-0.164-2.632-0.338-4.059-0.521c-1.408-0.232-2.873-0.515-4.412-0.803c-0.768-0.148-1.554-0.299-2.357-0.453
			c-0.786-0.191-1.589-0.386-2.409-0.585c-1.628-0.421-3.362-0.792-5.082-1.327c-6.979-1.962-14.621-4.926-22.601-8.99
			c-7.973-4.073-16.249-9.304-24.365-15.889c-2.019-1.656-4.086-3.336-6.067-5.173c-0.998-0.91-2.029-1.807-3.02-2.758
			c-0.98-0.961-1.968-1.932-2.966-2.911c-1.008-0.969-1.982-1.984-2.943-3.029c-0.966-1.038-1.941-2.085-2.923-3.141
			c-0.939-1.093-1.886-2.194-2.841-3.305c-0.959-1.107-1.906-2.237-2.811-3.419c-0.915-1.171-1.838-2.351-2.768-3.541
			c-0.883-1.225-1.772-2.46-2.668-3.703c-0.444-0.624-0.89-1.25-1.338-1.879c-0.424-0.646-0.85-1.294-1.277-1.945
			c-0.848-1.305-1.714-2.611-2.554-3.947c-3.291-5.395-6.397-11.118-9.172-17.211c-2.719-6.122-5.17-12.569-7.153-19.367
			c-1.932-6.816-3.436-13.95-4.375-21.345c-0.186-1.856-0.373-3.723-0.561-5.598c-0.168-1.876-0.21-3.781-0.309-5.683l-0.061-1.43
			l-0.03-0.716c-0.045-1.749-0.009-0.651-0.018-1.117l0.006-0.29c0.015-0.774,0.03-1.549,0.046-2.327s0.03-1.557,0.046-2.338
			c0.007-0.215,0.001-0.347,0.018-0.63l0.049-0.837l0.106-1.677c0.081-1.118,0.162-2.238,0.243-3.361l0.137-1.683
			c0.045-0.57,0.13-1.021,0.194-1.538c0.282-2.006,0.56-4.022,0.881-6.034c0.412-1.989,0.825-3.987,1.24-5.994
			c0.45-1.994,1.033-3.952,1.562-5.936c4.574-15.76,12.463-30.568,22.679-43.546c10.245-12.981,22.778-24.24,37.116-33.361
			c7.177-4.551,14.824-8.558,22.939-11.869c8.112-3.307,16.699-5.931,25.773-7.498c2.288-0.345,4.535-0.783,6.883-0.978l3.494-0.352
			c1.167-0.108,2.366-0.129,3.549-0.192c1.19-0.04,2.365-0.126,3.568-0.117l3.616,0.058l1.808,0.04c1.405,0.057,0.594,0.033,1,0.054
			l0.357,0.031l0.714,0.062l2.861,0.247c1.909,0.165,3.821,0.33,5.737,0.495c2.292,0.323,4.589,0.646,6.889,0.971
			c4.698,0.568,8.928,1.679,13.333,2.621c1.092,0.212,2.186,0.577,3.279,0.889l3.277,0.973l3.274,0.986
			c1.091,0.325,2.17,0.793,3.254,1.187c2.163,0.837,4.334,1.627,6.48,2.531c2.12,1.008,4.243,2.018,6.368,3.029
			c8.392,4.328,16.413,9.793,23.48,16.379c7.078,6.569,13.151,14.214,17.983,22.4c4.848,8.19,8.487,16.887,11.119,25.699
			c2.619,8.823,4.321,17.763,5.128,26.707c0.444,4.473,0.639,8.948,0.662,13.448c0.02,2.249-0.034,4.506-0.135,6.794
			c-0.045,1.142-0.124,2.299-0.208,3.484l-0.157,1.842l-0.114,1.122c0.027-0.316-0.019,0.15-0.02,0.139l-0.024,0.224
			c-0.035,0.249-0.07,0.722-0.105,1.119l-0.091,1.27c-0.065,0.851-0.092,1.742-0.135,2.621c-0.065,1.771-0.089,3.565-0.075,5.365
			c0.045,3.6,0.208,7.222,0.551,10.816c0.664,7.193,1.983,14.276,3.931,21.06c3.889,13.572,10.638,25.861,20.408,35.018
			c4.863,4.596,10.443,8.42,16.512,11.501c6.026,3.178,12.725,5.225,19.525,6.881c1.727,0.358,3.451,0.716,5.172,1.073
			c0.853,0.212,1.747,0.283,2.625,0.407l2.642,0.347l2.641,0.352l1.32,0.178l1.339,0.087c1.789,0.113,3.575,0.225,5.358,0.337
			l1.338,0.086l0.669,0.044l0.335,0.022c0.006,0.007,0.458,0.016,0.099,0.021l2.866,0.015l2.846,0.01l2.489-0.106l2.499-0.104
			l2.593-0.232c0.863-0.084,1.731-0.135,2.589-0.242l2.569-0.356c13.688-1.921,26.76-6.63,38.191-13.644
			c11.455-6.989,21.195-16.287,28.752-26.802c15.186-21.093,21.212-46.855,20.31-69.85c-0.322-5.724-1.12-11.34-2.354-16.723
			c-1.268-5.381-3.048-10.508-5.121-15.374c-4.21-9.72-9.912-18.218-16.182-25.425c-6.315-7.183-13.134-13.16-19.959-17.98
			c-6.808-4.851-13.546-8.657-19.843-11.656c-12.627-5.99-23.368-8.858-30.7-10.482c-3.683-0.771-6.528-1.297-8.457-1.561
			c-1.927-0.293-2.922-0.445-2.922-0.445s1.002,0.093,2.943,0.274c1.946,0.152,4.819,0.511,8.56,1.069
			c7.45,1.202,18.421,3.445,31.616,8.785c6.582,2.678,13.692,6.159,20.995,10.745c7.317,4.556,14.757,10.33,21.829,17.487
			c7.024,7.182,13.626,15.845,18.778,26.057c2.543,5.111,4.797,10.562,6.521,16.344c1.691,5.793,2.922,11.852,3.643,18.153
			c0.134,1.609,0.269,3.227,0.404,4.852c0.085,0.838,0.083,1.573,0.11,2.345c0.022,0.766,0.045,1.534,0.067,2.304l0.034,1.156
			l0.017,0.579l0.008,0.29l-0.005,0.439c-0.018,0.803-0.035,1.609-0.053,2.416c-0.056,1.614-0.025,3.242-0.17,4.871
			c-0.31,6.53-1.233,13.171-2.641,19.843c-2.84,13.329-7.975,26.821-15.88,39.252c-7.867,12.423-18.425,23.806-31.29,32.734
			c-12.83,8.954-27.898,15.431-43.943,18.649l-3.014,0.595c-1.008,0.185-2.025,0.312-3.04,0.47l-3.053,0.449
			c-1.043,0.125-2.12,0.218-3.182,0.325l-3.204,0.304l-2.871,0.157l-2.862,0.152l-3.297-0.003c-2.046-0.01-4.095-0.021-6.148-0.031
			l-1.543-0.016l-1.552-0.11l-3.111-0.224l-3.119-0.23c-1.041-0.088-2.083-0.121-3.128-0.304c-2.091-0.306-4.185-0.612-6.283-0.918
			c-8.362-1.504-16.866-3.584-25.012-7.231c-8.153-3.534-16.02-8.241-23.037-14.132c-7.027-5.873-13.155-12.885-18.158-20.528
			c-5.017-7.646-8.938-15.89-11.932-24.345c-2.985-8.465-5.11-17.143-6.446-25.898c-0.679-4.38-1.142-8.782-1.456-13.217
			c-0.148-2.218-0.25-4.447-0.3-6.699c-0.015-1.133-0.043-2.253-0.026-3.413l0.022-1.745c0.017-0.607,0.023-1.139,0.064-1.893
			l0.026-0.529c0.017-0.261-0.006-0.046,0.041-0.613c-0.002-0.043-0.006-0.012-0.002-0.115l0.008-0.266l0.026-1.17
			c0.007-0.824,0.018-1.677-0.002-2.547c-0.027-1.733-0.086-3.501-0.209-5.271c-0.229-3.539-0.589-7.096-1.153-10.599
			c-1.045-7.025-2.805-13.85-5.134-20.269c-2.34-6.418-5.32-12.412-8.934-17.75c-3.61-5.343-7.851-10.019-12.638-13.941
			c-4.784-3.93-10.118-7.107-15.832-9.648c-1.458-0.591-2.914-1.181-4.368-1.77c-1.498-0.519-3.044-0.955-4.55-1.449
			c-0.766-0.225-1.491-0.52-2.284-0.695l-2.366-0.542l-2.355-0.553c-0.788-0.177-1.549-0.406-2.376-0.501
			c-3.229-0.456-6.544-1.158-9.54-1.289c-1.528-0.143-3.054-0.287-4.577-0.43c-1.922-0.054-3.841-0.107-5.756-0.161l-2.87-0.08
			l-0.717-0.02l-0.358-0.01c0.167,0.01-0.881-0.037,0.285,0.02l-1.056,0.056l-2.103,0.09c-0.701,0.031-1.422,0.149-2.129,0.213
			c-0.712,0.087-1.415,0.121-2.131,0.239l-2.148,0.359c-1.425,0.18-2.869,0.594-4.298,0.88c-5.735,1.343-11.437,3.448-16.897,6.074
			c-5.465,2.624-10.699,5.773-15.584,9.3c-9.772,7.061-18.157,15.616-24.505,24.768c-6.35,9.164-10.628,18.886-12.734,28.285
			c-0.22,1.181-0.517,2.345-0.699,3.513c-0.168,1.165-0.334,2.326-0.5,3.481c-0.092,1.153-0.183,2.301-0.274,3.443
			c-0.017,0.271-0.068,0.601-0.059,0.821l0.006,0.682l-0.019,1.352l-0.025,0.671l-0.016,0.335c-0.006,0.108,0.011,0.367,0.016,0.542
			c0.03,0.781,0.06,1.56,0.09,2.337c0.03,0.777,0.06,1.552,0.09,2.326l0.011,0.29c-0.005-0.272,0.027,1.019-0.008-0.537l0.051,0.439
			l0.099,0.877c0.146,1.167,0.216,2.328,0.399,3.479c0.187,1.15,0.373,2.294,0.558,3.432c0.876,4.539,2.086,8.933,3.554,13.156
			c1.521,4.213,3.346,8.229,5.316,12.055c2.03,3.807,4.273,7.386,6.608,10.761c0.612,0.826,1.219,1.645,1.823,2.459l0.897,1.216
			l0.953,1.163c0.629,0.774,1.253,1.541,1.872,2.303c0.653,0.734,1.3,1.461,1.943,2.183c0.624,0.736,1.287,1.428,1.956,2.102
			c0.658,0.682,1.311,1.358,1.959,2.029c0.676,0.639,1.347,1.273,2.011,1.901c0.653,0.639,1.316,1.254,2.004,1.826
			c0.674,0.587,1.341,1.169,2.002,1.746c0.666,0.569,1.361,1.085,2.026,1.625c1.318,1.1,2.688,2.054,4.008,3.017
			c5.31,3.806,10.494,6.61,15.199,8.65c4.711,2.028,8.948,3.371,12.566,4.118c0.905,0.236,1.77,0.321,2.598,0.493
			c0.413,0.078,0.818,0.154,1.214,0.228c0.392,0.043,0.776,0.085,1.152,0.126c0.746,0.091,1.458,0.177,2.135,0.259
			c0.666,0.035,1.297,0.068,1.894,0.099c1.351,0.132,1.813,0.007,2.463,0.039c0.149,0.004,0.293,0.009,0.43,0.013
			c0.162,0.003,0.183,0.026,0.567-0.001c0.603-0.031,1.149-0.06,1.636-0.085c1.947-0.101,2.952-0.154,2.952-0.154l0.011-0.001
			c16.553-0.863,30.672,11.857,31.534,28.41c0.863,16.553-11.857,30.672-28.41,31.534
			C298.298,446.449,297.653,446.461,297.105,446.46z"/>
	</g>
	
		<text transform="matrix(0.8881 0 0 1 222.3462 346.6284)" display="inline" fill="#F47821" font-family="'DeathStar'" font-size="126.3709">cabal</text>
</g>
<g id="Camada_11" display="none">
	<path display="inline" fill="none" stroke="#F47821" stroke-width="20" stroke-miterlimit="10" d="M299.411,416.468
		c-52.028,2.908-107.925-49.44-110.513-110.513c-2.588-61.073,59.862-111.842,110.513-110.513
		c110.833,2.908,100.084,110.513,100.084,110.513s-10.249,110.513,99.131,110.513c61.044,0,108.739-46.532,110.513-110.513
		s-54.123-104.697-110.513-110.513"/>
	<path display="inline" fill="none" stroke="#F6851F" stroke-width="20" stroke-miterlimit="10" d="M298.411,427.989
		c-52.028,2.908-107.925-49.44-110.513-110.513c-2.588-61.073,59.862-111.842,110.513-110.513
		c110.833,2.908,100.084,110.513,100.084,110.513s-10.249,110.513,99.131,110.513c61.044,0,108.739-46.532,110.513-110.513
		s-54.123-104.697-110.513-110.513"/>
	<path display="inline" fill="none" stroke="#F99E1C" stroke-width="20" stroke-miterlimit="10" d="M298.411,440.793
		c-52.028,2.908-107.925-49.44-110.513-110.513c-2.588-61.073,59.862-111.842,110.513-110.513
		c110.833,2.908,100.084,110.513,100.084,110.513s-10.249,110.513,99.131,110.513c61.044,0,108.739-46.532,110.513-110.513
		s-54.123-104.697-110.513-110.513"/>
	<path display="inline" fill="none" stroke="#3E2469" stroke-width="20" stroke-miterlimit="10" d="M296.411,452.508
		c-52.028,2.908-107.925-49.44-110.513-110.513c-2.588-61.073,59.862-111.842,110.513-110.513
		c110.833,2.908,100.084,110.513,100.084,110.513s-10.249,110.513,99.131,110.513c61.044,0,108.739-46.532,110.513-110.513
		s-54.123-104.697-110.513-110.513"/>
	<rect x="440.35" y="312.323" display="inline" fill="none" width="137.654" height="30.003"/>
	<text transform="matrix(1 0 0 1 440.3503 338.0984)" display="inline" fill="#73479C" font-family="'Arial-Black'" font-size="36">cabal</text>
</g>
<g id="Camada_12" display="none">
	<path display="inline" fill="none" stroke="#F47821" stroke-width="20" stroke-miterlimit="10" d="M297.911,385.302
		c-52.028,2.908-107.925-49.44-110.513-110.513c-2.588-61.073,59.862-111.842,110.513-110.513
		c110.833,2.908,100.084,110.513,100.084,110.513s-10.249,110.513,99.131,110.513c61.044,0,108.739-46.532,110.513-110.513
		s-54.123-104.697-110.513-110.513"/>
	<path display="inline" fill="none" stroke="#F6851F" stroke-width="20" stroke-miterlimit="10" d="M296.911,396.823
		c-52.028,2.908-107.925-49.44-110.513-110.513c-2.588-61.073,59.862-111.842,110.513-110.513
		c110.833,2.908,100.084,110.513,100.084,110.513s-10.249,110.513,99.131,110.513c61.044,0,108.739-46.532,110.513-110.513
		s-54.123-104.697-110.513-110.513"/>
	<path display="inline" fill="none" stroke="#F99E1C" stroke-width="20" stroke-miterlimit="10" d="M296.911,409.626
		c-52.028,2.908-107.925-49.44-110.513-110.513C183.809,238.04,246.26,187.271,296.911,188.6
		c110.833,2.908,100.084,110.513,100.084,110.513s-10.249,110.513,99.131,110.513c61.044,0,108.739-46.532,110.513-110.513
		S552.517,194.416,496.126,188.6"/>
	<path display="inline" fill="none" stroke="#3E2469" stroke-width="20" stroke-miterlimit="10" d="M294.911,421.342
		c-52.028,2.908-107.925-49.44-110.513-110.513c-2.588-61.073,59.862-111.842,110.513-110.513
		c110.833,2.908,100.084,110.513,100.084,110.513s-10.249,110.513,99.131,110.513c61.044,0,108.739-46.532,110.513-110.513
		s-54.123-104.697-110.513-110.513"/>
	<rect x="178.14" y="263.601" display="inline" fill="none" width="543.294" height="205.017"/>
	<text transform="matrix(1 0 0 1 178.14 352.0402)" display="inline" fill="#855AA5" font-family="'DeathStar'" font-size="125">cabal</text>
</g>
<g id="Camada_13" display="none">
	<path display="inline" fill="none" stroke="#F47821" stroke-width="20" stroke-miterlimit="10" d="M291.212,365.623
		c-52.028,2.908-107.925-49.44-110.513-110.513c-2.588-61.073,59.862-111.842,110.513-110.513
		c110.833,2.908,100.084,110.513,100.084,110.513s-10.249,110.513,99.131,110.513c61.044,0,108.739-46.532,110.513-110.513
		c1.774-63.981-54.123-104.697-110.513-110.513"/>
	<path display="inline" fill="none" stroke="#F6851F" stroke-width="20" stroke-miterlimit="10" d="M290.212,377.144
		c-52.028,2.908-107.925-49.44-110.513-110.513c-2.588-61.073,59.862-111.842,110.513-110.513
		c110.833,2.908,100.084,110.513,100.084,110.513s-10.249,110.513,99.131,110.513c61.044,0,108.739-46.532,110.513-110.513
		c1.774-63.981-54.123-104.697-110.513-110.513"/>
	<path display="inline" fill="none" stroke="#F99E1C" stroke-width="20" stroke-miterlimit="10" d="M290.212,389.948
		c-52.028,2.908-107.925-49.44-110.513-110.513c-2.588-61.073,59.862-111.842,110.513-110.513
		c110.833,2.908,100.084,110.513,100.084,110.513s-10.249,110.513,99.131,110.513c61.044,0,108.739-46.532,110.513-110.513
		c1.774-63.981-54.123-104.697-110.513-110.513"/>
	<path display="inline" fill="none" stroke="#3E2469" stroke-width="20" stroke-miterlimit="10" d="M288.212,401.663
		c-52.028,2.908-107.925-49.44-110.513-110.513c-2.588-61.073,59.862-111.842,110.513-110.513
		c110.833,2.908,100.084,110.513,100.084,110.513s-10.249,110.513,99.131,110.513c61.044,0,108.739-46.532,110.513-110.513
		c1.774-63.981-54.123-104.697-110.513-110.513"/>
	<rect x="174.441" y="243.922" display="inline" fill="none" width="543.294" height="205.017"/>
	<text transform="matrix(1 0 0 1 174.4408 332.3615)" display="inline" fill="#3D2869" font-family="'DeathStar'" font-size="125">cabal</text>
</g>
</svg>
